<?xml version="1.0" encoding="UTF-8" standalone="no"?>
<!DOCTYPE svg PUBLIC "-//W3C//DTD SVG 1.1//EN"
 "http://www.w3.org/Graphics/SVG/1.1/DTD/svg11.dtd">
<!-- Generated by graphviz version 3.0.0 (0)
 -->
<!-- Title: topology::Device Pages: 1 -->
<svg width="208pt" height="270pt"
 viewBox="0.00 0.00 208.00 270.00" xmlns="http://www.w3.org/2000/svg" xmlns:xlink="http://www.w3.org/1999/xlink">
<g id="graph0" class="graph" transform="scale(1 1) rotate(0) translate(4 266)">
<title>topology::Device</title>
<polygon fill="white" stroke="transparent" points="-4,4 -4,-266 204,-266 204,4 -4,4"/>
<!-- Node1 -->
<g id="node1" class="node">
<title>Node1</title>
<g id="a_node1"><a xlink:title="base class containing basic functionality of every device">
<polygon fill="#bfbfbf" stroke="black" points="41.5,-105.5 41.5,-261.5 152.5,-261.5 152.5,-105.5 41.5,-105.5"/>
<text text-anchor="middle" x="97" y="-249.5" font-family="Helvetica,sans-Serif" font-size="10.00">topology::Device</text>
<polyline fill="none" stroke="black" points="41.5,-242.5 152.5,-242.5 "/>
<text text-anchor="start" x="49.5" y="-230.5" font-family="Helvetica,sans-Serif" font-size="10.00"># m_deviceID</text>
<text text-anchor="start" x="49.5" y="-219.5" font-family="Helvetica,sans-Serif" font-size="10.00"># m_deviceType</text>
<text text-anchor="start" x="49.5" y="-208.5" font-family="Helvetica,sans-Serif" font-size="10.00"># m_deviceProperties</text>
<text text-anchor="start" x="49.5" y="-197.5" font-family="Helvetica,sans-Serif" font-size="10.00"># m_netList</text>
<polyline fill="none" stroke="black" points="41.5,-190.5 152.5,-190.5 "/>
<text text-anchor="start" x="49.5" y="-178.5" font-family="Helvetica,sans-Serif" font-size="10.00">+ Device()</text>
<text text-anchor="start" x="49.5" y="-167.5" font-family="Helvetica,sans-Serif" font-size="10.00">+ getID()</text>
<text text-anchor="start" x="49.5" y="-156.5" font-family="Helvetica,sans-Serif" font-size="10.00">+ getType()</text>
<text text-anchor="start" x="49.5" y="-145.5" font-family="Helvetica,sans-Serif" font-size="10.00">+ getProperties()</text>
<text text-anchor="start" x="49.5" y="-134.5" font-family="Helvetica,sans-Serif" font-size="10.00">+ getNetList()</text>
<text text-anchor="start" x="49.5" y="-123.5" font-family="Helvetica,sans-Serif" font-size="10.00">+ toJson()</text>
<text text-anchor="start" x="49.5" y="-112.5" font-family="Helvetica,sans-Serif" font-size="10.00">+ ~Device()</text>
</a>
</g>
</g>
<!-- Node2 -->
<g id="node2" class="node">
<title>Node2</title>
<g id="a_node2"><a xlink:href="classtopology_1_1Nmos.html" target="_top" xlink:title="Nmos (N&#45;type metal&#45;oxide&#45;semiconductor) device.">
<polygon fill="white" stroke="black" points="0,-0.5 0,-68.5 86,-68.5 86,-0.5 0,-0.5"/>
<text text-anchor="middle" x="43" y="-56.5" font-family="Helvetica,sans-Serif" font-size="10.00">topology::Nmos</text>
<polyline fill="none" stroke="black" points="0,-49.5 86,-49.5 "/>
<text text-anchor="middle" x="43" y="-37.5" font-family="Helvetica,sans-Serif" font-size="10.00"> </text>
<polyline fill="none" stroke="black" points="0,-30.5 86,-30.5 "/>
<text text-anchor="start" x="8" y="-18.5" font-family="Helvetica,sans-Serif" font-size="10.00">+ Nmos()</text>
<text text-anchor="start" x="8" y="-7.5" font-family="Helvetica,sans-Serif" font-size="10.00">+ toJson()</text>
</a>
</g>
</g>
<!-- Node1&#45;&gt;Node2 -->
<g id="edge1" class="edge">
<title>Node1&#45;&gt;Node2</title>
<path fill="none" stroke="midnightblue" d="M65.05,-95.53C61.56,-86.02 58.18,-76.81 55.15,-68.59"/>
<polygon fill="none" stroke="midnightblue" points="61.84,-96.95 68.58,-105.13 68.41,-94.53 61.84,-96.95"/>
</g>
<!-- Node3 -->
<g id="node3" class="node">
<title>Node3</title>
<g id="a_node3"><a xlink:href="classtopology_1_1Resistor.html" target="_top" xlink:title="Resistor device.">
<polygon fill="white" stroke="black" points="104,-0.5 104,-68.5 200,-68.5 200,-0.5 104,-0.5"/>
<text text-anchor="middle" x="152" y="-56.5" font-family="Helvetica,sans-Serif" font-size="10.00">topology::Resistor</text>
<polyline fill="none" stroke="black" points="104,-49.5 200,-49.5 "/>
<text text-anchor="middle" x="152" y="-37.5" font-family="Helvetica,sans-Serif" font-size="10.00"> </text>
<polyline fill="none" stroke="black" points="104,-30.5 200,-30.5 "/>
<text text-anchor="start" x="112" y="-18.5" font-family="Helvetica,sans-Serif" font-size="10.00">+ Resistor()</text>
<text text-anchor="start" x="112" y="-7.5" font-family="Helvetica,sans-Serif" font-size="10.00">+ toJson()</text>
</a>
</g>
</g>
<!-- Node1&#45;&gt;Node3 -->
<g id="edge2" class="edge">
<title>Node1&#45;&gt;Node3</title>
<path fill="none" stroke="midnightblue" d="M129.54,-95.53C133.1,-86.02 136.54,-76.81 139.62,-68.59"/>
<polygon fill="none" stroke="midnightblue" points="126.18,-94.53 125.95,-105.13 132.73,-96.99 126.18,-94.53"/>
</g>
</g>
</svg>
