<?xml version="1.0" encoding="UTF-8" standalone="no"?>
<!DOCTYPE svg PUBLIC "-//W3C//DTD SVG 1.1//EN"
 "http://www.w3.org/Graphics/SVG/1.1/DTD/svg11.dtd">
<!-- Generated by graphviz version 3.0.0 (0)
 -->
<!-- Title: Graphical Class Hierarchy Pages: 1 -->
<svg width="230pt" height="66pt"
 viewBox="0.00 0.00 230.00 66.00" xmlns="http://www.w3.org/2000/svg" xmlns:xlink="http://www.w3.org/1999/xlink">
<g id="graph0" class="graph" transform="scale(1 1) rotate(0) translate(4 62)">
<title>Graphical Class Hierarchy</title>
<polygon fill="white" stroke="transparent" points="-4,4 -4,-62 226,-62 226,4 -4,4"/>
<!-- Node0 -->
<g id="node1" class="node">
<title>Node0</title>
<g id="a_node1"><a xlink:href="classtopology_1_1Device.html" target="_top" xlink:title="base class containing basic functionality of every device">
<polygon fill="white" stroke="black" points="0,-19.5 0,-38.5 90,-38.5 90,-19.5 0,-19.5"/>
<text text-anchor="middle" x="45" y="-26.5" font-family="Helvetica,sans-Serif" font-size="10.00">topology::Device</text>
</a>
</g>
</g>
<!-- Node1 -->
<g id="node2" class="node">
<title>Node1</title>
<g id="a_node2"><a xlink:href="classtopology_1_1Nmos.html" target="_top" xlink:title="Nmos (N&#45;type metal&#45;oxide&#45;semiconductor) device.">
<polygon fill="white" stroke="black" points="131,-38.5 131,-57.5 217,-57.5 217,-38.5 131,-38.5"/>
<text text-anchor="middle" x="174" y="-45.5" font-family="Helvetica,sans-Serif" font-size="10.00">topology::Nmos</text>
</a>
</g>
</g>
<!-- Node0&#45;&gt;Node1 -->
<g id="edge1" class="edge">
<title>Node0&#45;&gt;Node1</title>
<path fill="none" stroke="midnightblue" d="M100.14,-37.1C110.37,-38.63 120.93,-40.21 130.73,-41.68"/>
<polygon fill="midnightblue" stroke="midnightblue" points="100.47,-33.61 90.06,-35.59 99.43,-40.53 100.47,-33.61"/>
</g>
<!-- Node2 -->
<g id="node3" class="node">
<title>Node2</title>
<g id="a_node3"><a xlink:href="classtopology_1_1Resistor.html" target="_top" xlink:title="Resistor device.">
<polygon fill="white" stroke="black" points="126,-0.5 126,-19.5 222,-19.5 222,-0.5 126,-0.5"/>
<text text-anchor="middle" x="174" y="-7.5" font-family="Helvetica,sans-Serif" font-size="10.00">topology::Resistor</text>
</a>
</g>
</g>
<!-- Node0&#45;&gt;Node2 -->
<g id="edge2" class="edge">
<title>Node0&#45;&gt;Node2</title>
<path fill="none" stroke="midnightblue" d="M100.04,-20.91C108.67,-19.62 117.54,-18.3 125.99,-17.03"/>
<polygon fill="midnightblue" stroke="midnightblue" points="99.43,-17.47 90.06,-22.41 100.47,-24.39 99.43,-17.47"/>
</g>
</g>
</svg>
