<?xml version="1.0" encoding="UTF-8" standalone="no"?>
<!DOCTYPE svg PUBLIC "-//W3C//DTD SVG 1.1//EN"
 "http://www.w3.org/Graphics/SVG/1.1/DTD/svg11.dtd">
<!-- Generated by graphviz version 3.0.0 (0)
 -->
<!-- Title: src/devices/nmos.cpp Pages: 1 -->
<svg width="331pt" height="196pt"
 viewBox="0.00 0.00 331.00 196.00" xmlns="http://www.w3.org/2000/svg" xmlns:xlink="http://www.w3.org/1999/xlink">
<g id="graph0" class="graph" transform="scale(1 1) rotate(0) translate(4 192)">
<title>src/devices/nmos.cpp</title>
<polygon fill="white" stroke="transparent" points="-4,4 -4,-192 327,-192 327,4 -4,4"/>
<!-- Node1 -->
<g id="node1" class="node">
<title>Node1</title>
<g id="a_node1"><a xlink:title=" ">
<polygon fill="#bfbfbf" stroke="black" points="106.5,-168.5 106.5,-187.5 219.5,-187.5 219.5,-168.5 106.5,-168.5"/>
<text text-anchor="middle" x="163" y="-175.5" font-family="Helvetica,sans-Serif" font-size="10.00">src/devices/nmos.cpp</text>
</a>
</g>
</g>
<!-- Node2 -->
<g id="node2" class="node">
<title>Node2</title>
<g id="a_node2"><a xlink:href="nmos_8hpp.html" target="_top" xlink:title=" ">
<polygon fill="white" stroke="black" points="39,-112.5 39,-131.5 135,-131.5 135,-112.5 39,-112.5"/>
<text text-anchor="middle" x="87" y="-119.5" font-family="Helvetica,sans-Serif" font-size="10.00">devices/nmos.hpp</text>
</a>
</g>
</g>
<!-- Node1&#45;&gt;Node2 -->
<g id="edge1" class="edge">
<title>Node1&#45;&gt;Node2</title>
<path fill="none" stroke="midnightblue" d="M150.79,-168.32C139.22,-160.11 121.62,-147.6 107.84,-137.81"/>
<polygon fill="midnightblue" stroke="midnightblue" points="109.61,-134.77 99.43,-131.83 105.56,-140.48 109.61,-134.77"/>
</g>
<!-- Node3 -->
<g id="node3" class="node">
<title>Node3</title>
<g id="a_node3"><a xlink:href="device_8hpp.html" target="_top" xlink:title=" ">
<polygon fill="white" stroke="black" points="115,-56.5 115,-75.5 179,-75.5 179,-56.5 115,-56.5"/>
<text text-anchor="middle" x="147" y="-63.5" font-family="Helvetica,sans-Serif" font-size="10.00">device.hpp</text>
</a>
</g>
</g>
<!-- Node1&#45;&gt;Node3 -->
<g id="edge7" class="edge">
<title>Node1&#45;&gt;Node3</title>
<path fill="none" stroke="midnightblue" d="M161.74,-168.37C159.16,-150.62 153.21,-109.67 149.71,-85.6"/>
<polygon fill="midnightblue" stroke="midnightblue" points="153.15,-84.98 148.25,-75.59 146.23,-85.99 153.15,-84.98"/>
</g>
<!-- Node4 -->
<g id="node4" class="node">
<title>Node4</title>
<g id="a_node4"><a xlink:title=" ">
<polygon fill="white" stroke="#bfbfbf" points="0,-0.5 0,-19.5 98,-19.5 98,-0.5 0,-0.5"/>
<text text-anchor="middle" x="49" y="-7.5" font-family="Helvetica,sans-Serif" font-size="10.00">nlohmann/json.hpp</text>
</a>
</g>
</g>
<!-- Node1&#45;&gt;Node4 -->
<g id="edge10" class="edge">
<title>Node1&#45;&gt;Node4</title>
<path fill="none" stroke="midnightblue" d="M106.42,-172.85C78.61,-167.61 47.41,-156.26 30,-132 7.68,-100.88 26.17,-53.66 39.09,-28.4"/>
<polygon fill="midnightblue" stroke="midnightblue" points="42.18,-30.05 43.84,-19.59 36.01,-26.73 42.18,-30.05"/>
</g>
<!-- Node6 -->
<g id="node6" class="node">
<title>Node6</title>
<g id="a_node6"><a xlink:title=" ">
<polygon fill="white" stroke="#bfbfbf" points="191.5,-112.5 191.5,-131.5 250.5,-131.5 250.5,-112.5 191.5,-112.5"/>
<text text-anchor="middle" x="221" y="-119.5" font-family="Helvetica,sans-Serif" font-size="10.00">exception</text>
</a>
</g>
</g>
<!-- Node1&#45;&gt;Node6 -->
<g id="edge8" class="edge">
<title>Node1&#45;&gt;Node6</title>
<path fill="none" stroke="midnightblue" d="M172.32,-168.32C180.89,-160.34 193.81,-148.31 204.19,-138.65"/>
<polygon fill="midnightblue" stroke="midnightblue" points="206.58,-141.21 211.51,-131.83 201.81,-136.09 206.58,-141.21"/>
</g>
<!-- Node7 -->
<g id="node7" class="node">
<title>Node7</title>
<g id="a_node7"><a xlink:title=" ">
<polygon fill="white" stroke="#bfbfbf" points="269,-112.5 269,-131.5 323,-131.5 323,-112.5 269,-112.5"/>
<text text-anchor="middle" x="296" y="-119.5" font-family="Helvetica,sans-Serif" font-size="10.00">iostream</text>
</a>
</g>
</g>
<!-- Node1&#45;&gt;Node7 -->
<g id="edge9" class="edge">
<title>Node1&#45;&gt;Node7</title>
<path fill="none" stroke="midnightblue" d="M184.07,-168.44C206.06,-159.52 240.73,-145.44 265.66,-135.32"/>
<polygon fill="midnightblue" stroke="midnightblue" points="267.08,-138.52 275.02,-131.52 264.44,-132.04 267.08,-138.52"/>
</g>
<!-- Node2&#45;&gt;Node3 -->
<g id="edge2" class="edge">
<title>Node2&#45;&gt;Node3</title>
<path fill="none" stroke="midnightblue" d="M96.64,-112.32C105.51,-104.34 118.87,-92.31 129.61,-82.65"/>
<polygon fill="midnightblue" stroke="midnightblue" points="132.09,-85.13 137.18,-75.83 127.41,-79.92 132.09,-85.13"/>
</g>
<!-- Node2&#45;&gt;Node4 -->
<g id="edge5" class="edge">
<title>Node2&#45;&gt;Node4</title>
<path fill="none" stroke="midnightblue" d="M84.02,-112.37C77.86,-94.54 63.61,-53.3 55.31,-29.27"/>
<polygon fill="midnightblue" stroke="midnightblue" points="58.54,-27.9 51.97,-19.59 51.93,-30.19 58.54,-27.9"/>
</g>
<!-- Node5 -->
<g id="node5" class="node">
<title>Node5</title>
<g id="a_node5"><a xlink:title=" ">
<polygon fill="white" stroke="#bfbfbf" points="121.5,-0.5 121.5,-19.5 162.5,-19.5 162.5,-0.5 121.5,-0.5"/>
<text text-anchor="middle" x="142" y="-7.5" font-family="Helvetica,sans-Serif" font-size="10.00">string</text>
</a>
</g>
</g>
<!-- Node2&#45;&gt;Node5 -->
<g id="edge6" class="edge">
<title>Node2&#45;&gt;Node5</title>
<path fill="none" stroke="midnightblue" d="M88.45,-112.18C90.81,-99.28 96.24,-74.78 106,-56 111.41,-45.59 119.42,-35.28 126.51,-27.15"/>
<polygon fill="midnightblue" stroke="midnightblue" points="129.27,-29.32 133.42,-19.57 124.1,-24.6 129.27,-29.32"/>
</g>
<!-- Node3&#45;&gt;Node4 -->
<g id="edge3" class="edge">
<title>Node3&#45;&gt;Node4</title>
<path fill="none" stroke="midnightblue" d="M131.25,-56.32C115.68,-47.74 91.62,-34.49 73.54,-24.52"/>
<polygon fill="midnightblue" stroke="midnightblue" points="75.15,-21.42 64.71,-19.65 71.78,-27.55 75.15,-21.42"/>
</g>
<!-- Node3&#45;&gt;Node5 -->
<g id="edge4" class="edge">
<title>Node3&#45;&gt;Node5</title>
<path fill="none" stroke="midnightblue" d="M146.17,-56.08C145.52,-49.01 144.58,-38.86 143.76,-29.99"/>
<polygon fill="midnightblue" stroke="midnightblue" points="147.22,-29.39 142.81,-19.75 140.25,-30.03 147.22,-29.39"/>
</g>
</g>
</svg>
