<?xml version="1.0" encoding="UTF-8" standalone="no"?>
<!DOCTYPE svg PUBLIC "-//W3C//DTD SVG 1.1//EN"
 "http://www.w3.org/Graphics/SVG/1.1/DTD/svg11.dtd">
<!-- Generated by graphviz version 3.0.0 (0)
 -->
<!-- Title: include/devices/nmos.hpp Pages: 1 -->
<svg width="174pt" height="140pt"
 viewBox="0.00 0.00 173.50 140.00" xmlns="http://www.w3.org/2000/svg" xmlns:xlink="http://www.w3.org/1999/xlink">
<g id="graph0" class="graph" transform="scale(1 1) rotate(0) translate(4 136)">
<title>include/devices/nmos.hpp</title>
<polygon fill="white" stroke="transparent" points="-4,4 -4,-136 169.5,-136 169.5,4 -4,4"/>
<!-- Node1 -->
<g id="node1" class="node">
<title>Node1</title>
<g id="a_node1"><a xlink:title=" ">
<polygon fill="#bfbfbf" stroke="black" points="28,-112.5 28,-131.5 158,-131.5 158,-112.5 28,-112.5"/>
<text text-anchor="middle" x="93" y="-119.5" font-family="Helvetica,sans-Serif" font-size="10.00">include/devices/nmos.hpp</text>
</a>
</g>
</g>
<!-- Node2 -->
<g id="node2" class="node">
<title>Node2</title>
<g id="a_node2"><a xlink:href="device_8hpp.html" target="_top" xlink:title=" ">
<polygon fill="white" stroke="black" points="61,-56.5 61,-75.5 125,-75.5 125,-56.5 61,-56.5"/>
<text text-anchor="middle" x="93" y="-63.5" font-family="Helvetica,sans-Serif" font-size="10.00">device.hpp</text>
</a>
</g>
</g>
<!-- Node1&#45;&gt;Node2 -->
<g id="edge1" class="edge">
<title>Node1&#45;&gt;Node2</title>
<path fill="none" stroke="midnightblue" d="M93,-112.08C93,-105.01 93,-94.86 93,-85.99"/>
<polygon fill="midnightblue" stroke="midnightblue" points="96.5,-85.75 93,-75.75 89.5,-85.75 96.5,-85.75"/>
</g>
<!-- Node3 -->
<g id="node3" class="node">
<title>Node3</title>
<g id="a_node3"><a xlink:title=" ">
<polygon fill="white" stroke="#bfbfbf" points="0,-0.5 0,-19.5 98,-19.5 98,-0.5 0,-0.5"/>
<text text-anchor="middle" x="49" y="-7.5" font-family="Helvetica,sans-Serif" font-size="10.00">nlohmann/json.hpp</text>
</a>
</g>
</g>
<!-- Node1&#45;&gt;Node3 -->
<g id="edge4" class="edge">
<title>Node1&#45;&gt;Node3</title>
<path fill="none" stroke="midnightblue" d="M81.63,-112.42C71.8,-104.27 58.23,-91.04 52,-76 45.98,-61.47 45.62,-43.52 46.55,-30.17"/>
<polygon fill="midnightblue" stroke="midnightblue" points="50.07,-30.12 47.58,-19.82 43.1,-29.42 50.07,-30.12"/>
</g>
<!-- Node4 -->
<g id="node4" class="node">
<title>Node4</title>
<g id="a_node4"><a xlink:title=" ">
<polygon fill="white" stroke="#bfbfbf" points="124.5,-0.5 124.5,-19.5 165.5,-19.5 165.5,-0.5 124.5,-0.5"/>
<text text-anchor="middle" x="145" y="-7.5" font-family="Helvetica,sans-Serif" font-size="10.00">string</text>
</a>
</g>
</g>
<!-- Node1&#45;&gt;Node4 -->
<g id="edge5" class="edge">
<title>Node1&#45;&gt;Node4</title>
<path fill="none" stroke="midnightblue" d="M103.95,-112.23C113.48,-103.94 126.87,-90.63 134,-76 141.05,-61.53 143.67,-43.34 144.61,-29.89"/>
<polygon fill="midnightblue" stroke="midnightblue" points="148.1,-30.03 145.05,-19.89 141.11,-29.72 148.1,-30.03"/>
</g>
<!-- Node2&#45;&gt;Node3 -->
<g id="edge2" class="edge">
<title>Node2&#45;&gt;Node3</title>
<path fill="none" stroke="midnightblue" d="M85.73,-56.08C79.46,-48.38 70.21,-37.03 62.57,-27.65"/>
<polygon fill="midnightblue" stroke="midnightblue" points="65.16,-25.29 56.13,-19.75 59.73,-29.71 65.16,-25.29"/>
</g>
<!-- Node2&#45;&gt;Node4 -->
<g id="edge3" class="edge">
<title>Node2&#45;&gt;Node4</title>
<path fill="none" stroke="midnightblue" d="M101.59,-56.08C109.16,-48.22 120.38,-36.57 129.51,-27.08"/>
<polygon fill="midnightblue" stroke="midnightblue" points="132.16,-29.38 136.57,-19.75 127.12,-24.53 132.16,-29.38"/>
</g>
</g>
</svg>
