<?xml version="1.0" encoding="UTF-8" standalone="no"?>
<!DOCTYPE svg PUBLIC "-//W3C//DTD SVG 1.1//EN"
 "http://www.w3.org/Graphics/SVG/1.1/DTD/svg11.dtd">
<!-- Generated by graphviz version 3.0.0 (0)
 -->
<!-- Title: src/devices/resistor.cpp Pages: 1 -->
<svg width="335pt" height="196pt"
 viewBox="0.00 0.00 335.00 196.00" xmlns="http://www.w3.org/2000/svg" xmlns:xlink="http://www.w3.org/1999/xlink">
<g id="graph0" class="graph" transform="scale(1 1) rotate(0) translate(4 192)">
<title>src/devices/resistor.cpp</title>
<polygon fill="white" stroke="transparent" points="-4,4 -4,-192 331,-192 331,4 -4,4"/>
<!-- Node1 -->
<g id="node1" class="node">
<title>Node1</title>
<g id="a_node1"><a xlink:title=" ">
<polygon fill="#bfbfbf" stroke="black" points="106.5,-168.5 106.5,-187.5 227.5,-187.5 227.5,-168.5 106.5,-168.5"/>
<text text-anchor="middle" x="167" y="-175.5" font-family="Helvetica,sans-Serif" font-size="10.00">src/devices/resistor.cpp</text>
</a>
</g>
</g>
<!-- Node2 -->
<g id="node2" class="node">
<title>Node2</title>
<g id="a_node2"><a xlink:href="resistor_8hpp.html" target="_top" xlink:title=" ">
<polygon fill="white" stroke="black" points="35,-112.5 35,-131.5 139,-131.5 139,-112.5 35,-112.5"/>
<text text-anchor="middle" x="87" y="-119.5" font-family="Helvetica,sans-Serif" font-size="10.00">devices/resistor.hpp</text>
</a>
</g>
</g>
<!-- Node1&#45;&gt;Node2 -->
<g id="edge1" class="edge">
<title>Node1&#45;&gt;Node2</title>
<path fill="none" stroke="midnightblue" d="M154.15,-168.32C141.78,-159.98 122.87,-147.21 108.26,-137.35"/>
<polygon fill="midnightblue" stroke="midnightblue" points="110.07,-134.35 99.82,-131.65 106.15,-140.15 110.07,-134.35"/>
</g>
<!-- Node3 -->
<g id="node3" class="node">
<title>Node3</title>
<g id="a_node3"><a xlink:href="device_8hpp.html" target="_top" xlink:title=" ">
<polygon fill="white" stroke="black" points="115,-56.5 115,-75.5 179,-75.5 179,-56.5 115,-56.5"/>
<text text-anchor="middle" x="147" y="-63.5" font-family="Helvetica,sans-Serif" font-size="10.00">device.hpp</text>
</a>
</g>
</g>
<!-- Node1&#45;&gt;Node3 -->
<g id="edge7" class="edge">
<title>Node1&#45;&gt;Node3</title>
<path fill="none" stroke="midnightblue" d="M165.43,-168.37C162.2,-150.62 154.76,-109.67 150.38,-85.6"/>
<polygon fill="midnightblue" stroke="midnightblue" points="153.79,-84.8 148.56,-75.59 146.91,-86.06 153.79,-84.8"/>
</g>
<!-- Node4 -->
<g id="node4" class="node">
<title>Node4</title>
<g id="a_node4"><a xlink:title=" ">
<polygon fill="white" stroke="#bfbfbf" points="0,-0.5 0,-19.5 98,-19.5 98,-0.5 0,-0.5"/>
<text text-anchor="middle" x="49" y="-7.5" font-family="Helvetica,sans-Serif" font-size="10.00">nlohmann/json.hpp</text>
</a>
</g>
</g>
<!-- Node1&#45;&gt;Node4 -->
<g id="edge10" class="edge">
<title>Node1&#45;&gt;Node4</title>
<path fill="none" stroke="midnightblue" d="M106.39,-173.66C77.11,-168.63 44.42,-157.21 26,-132 3.28,-100.9 23.91,-53.68 38.14,-28.4"/>
<polygon fill="midnightblue" stroke="midnightblue" points="41.28,-29.98 43.35,-19.59 35.25,-26.42 41.28,-29.98"/>
</g>
<!-- Node6 -->
<g id="node6" class="node">
<title>Node6</title>
<g id="a_node6"><a xlink:title=" ">
<polygon fill="white" stroke="#bfbfbf" points="195.5,-112.5 195.5,-131.5 254.5,-131.5 254.5,-112.5 195.5,-112.5"/>
<text text-anchor="middle" x="225" y="-119.5" font-family="Helvetica,sans-Serif" font-size="10.00">exception</text>
</a>
</g>
</g>
<!-- Node1&#45;&gt;Node6 -->
<g id="edge8" class="edge">
<title>Node1&#45;&gt;Node6</title>
<path fill="none" stroke="midnightblue" d="M176.32,-168.32C184.89,-160.34 197.81,-148.31 208.19,-138.65"/>
<polygon fill="midnightblue" stroke="midnightblue" points="210.58,-141.21 215.51,-131.83 205.81,-136.09 210.58,-141.21"/>
</g>
<!-- Node7 -->
<g id="node7" class="node">
<title>Node7</title>
<g id="a_node7"><a xlink:title=" ">
<polygon fill="white" stroke="#bfbfbf" points="273,-112.5 273,-131.5 327,-131.5 327,-112.5 273,-112.5"/>
<text text-anchor="middle" x="300" y="-119.5" font-family="Helvetica,sans-Serif" font-size="10.00">iostream</text>
</a>
</g>
</g>
<!-- Node1&#45;&gt;Node7 -->
<g id="edge9" class="edge">
<title>Node1&#45;&gt;Node7</title>
<path fill="none" stroke="midnightblue" d="M188.07,-168.44C210.06,-159.52 244.73,-145.44 269.66,-135.32"/>
<polygon fill="midnightblue" stroke="midnightblue" points="271.08,-138.52 279.02,-131.52 268.44,-132.04 271.08,-138.52"/>
</g>
<!-- Node2&#45;&gt;Node3 -->
<g id="edge2" class="edge">
<title>Node2&#45;&gt;Node3</title>
<path fill="none" stroke="midnightblue" d="M96.64,-112.32C105.51,-104.34 118.87,-92.31 129.61,-82.65"/>
<polygon fill="midnightblue" stroke="midnightblue" points="132.09,-85.13 137.18,-75.83 127.41,-79.92 132.09,-85.13"/>
</g>
<!-- Node2&#45;&gt;Node4 -->
<g id="edge5" class="edge">
<title>Node2&#45;&gt;Node4</title>
<path fill="none" stroke="midnightblue" d="M84.02,-112.37C77.86,-94.54 63.61,-53.3 55.31,-29.27"/>
<polygon fill="midnightblue" stroke="midnightblue" points="58.54,-27.9 51.97,-19.59 51.93,-30.19 58.54,-27.9"/>
</g>
<!-- Node5 -->
<g id="node5" class="node">
<title>Node5</title>
<g id="a_node5"><a xlink:title=" ">
<polygon fill="white" stroke="#bfbfbf" points="121.5,-0.5 121.5,-19.5 162.5,-19.5 162.5,-0.5 121.5,-0.5"/>
<text text-anchor="middle" x="142" y="-7.5" font-family="Helvetica,sans-Serif" font-size="10.00">string</text>
</a>
</g>
</g>
<!-- Node2&#45;&gt;Node5 -->
<g id="edge6" class="edge">
<title>Node2&#45;&gt;Node5</title>
<path fill="none" stroke="midnightblue" d="M88.45,-112.18C90.81,-99.28 96.24,-74.78 106,-56 111.41,-45.59 119.42,-35.28 126.51,-27.15"/>
<polygon fill="midnightblue" stroke="midnightblue" points="129.27,-29.32 133.42,-19.57 124.1,-24.6 129.27,-29.32"/>
</g>
<!-- Node3&#45;&gt;Node4 -->
<g id="edge3" class="edge">
<title>Node3&#45;&gt;Node4</title>
<path fill="none" stroke="midnightblue" d="M131.25,-56.32C115.68,-47.74 91.62,-34.49 73.54,-24.52"/>
<polygon fill="midnightblue" stroke="midnightblue" points="75.15,-21.42 64.71,-19.65 71.78,-27.55 75.15,-21.42"/>
</g>
<!-- Node3&#45;&gt;Node5 -->
<g id="edge4" class="edge">
<title>Node3&#45;&gt;Node5</title>
<path fill="none" stroke="midnightblue" d="M146.17,-56.08C145.52,-49.01 144.58,-38.86 143.76,-29.99"/>
<polygon fill="midnightblue" stroke="midnightblue" points="147.22,-29.39 142.81,-19.75 140.25,-30.03 147.22,-29.39"/>
</g>
</g>
</svg>
