<?xml version="1.0" encoding="UTF-8" standalone="no"?>
<!DOCTYPE svg PUBLIC "-//W3C//DTD SVG 1.1//EN"
 "http://www.w3.org/Graphics/SVG/1.1/DTD/svg11.dtd">
<!-- Generated by graphviz version 3.0.0 (0)
 -->
<!-- Title: include/topologyList.hpp Pages: 1 -->
<svg width="325pt" height="196pt"
 viewBox="0.00 0.00 324.50 196.00" xmlns="http://www.w3.org/2000/svg" xmlns:xlink="http://www.w3.org/1999/xlink">
<g id="graph0" class="graph" transform="scale(1 1) rotate(0) translate(4 192)">
<title>include/topologyList.hpp</title>
<polygon fill="white" stroke="transparent" points="-4,4 -4,-192 320.5,-192 320.5,4 -4,4"/>
<!-- Node1 -->
<g id="node1" class="node">
<title>Node1</title>
<g id="a_node1"><a xlink:title=" ">
<polygon fill="#bfbfbf" stroke="black" points="173,-168.5 173,-187.5 295,-187.5 295,-168.5 173,-168.5"/>
<text text-anchor="middle" x="234" y="-175.5" font-family="Helvetica,sans-Serif" font-size="10.00">include/topologyList.hpp</text>
</a>
</g>
</g>
<!-- Node2 -->
<g id="node2" class="node">
<title>Node2</title>
<g id="a_node2"><a xlink:href="topology_8hpp.html" target="_top" xlink:title=" ">
<polygon fill="white" stroke="black" points="115.5,-112.5 115.5,-131.5 186.5,-131.5 186.5,-112.5 115.5,-112.5"/>
<text text-anchor="middle" x="151" y="-119.5" font-family="Helvetica,sans-Serif" font-size="10.00">topology.hpp</text>
</a>
</g>
</g>
<!-- Node1&#45;&gt;Node2 -->
<g id="edge1" class="edge">
<title>Node1&#45;&gt;Node2</title>
<path fill="none" stroke="midnightblue" d="M220.66,-168.32C207.84,-159.98 188.22,-147.21 173.06,-137.35"/>
<polygon fill="midnightblue" stroke="midnightblue" points="174.59,-134.17 164.3,-131.65 170.78,-140.04 174.59,-134.17"/>
</g>
<!-- Node5 -->
<g id="node5" class="node">
<title>Node5</title>
<g id="a_node5"><a xlink:title=" ">
<polygon fill="white" stroke="#bfbfbf" points="132.5,-0.5 132.5,-19.5 173.5,-19.5 173.5,-0.5 132.5,-0.5"/>
<text text-anchor="middle" x="153" y="-7.5" font-family="Helvetica,sans-Serif" font-size="10.00">string</text>
</a>
</g>
</g>
<!-- Node1&#45;&gt;Node5 -->
<g id="edge9" class="edge">
<title>Node1&#45;&gt;Node5</title>
<path fill="none" stroke="midnightblue" d="M236.78,-168.31C242.95,-147.3 255.63,-92.75 234,-56 223.12,-37.52 201.61,-26.08 183.49,-19.36"/>
<polygon fill="midnightblue" stroke="midnightblue" points="184.45,-16 173.86,-16.1 182.21,-22.63 184.45,-16"/>
</g>
<!-- Node6 -->
<g id="node6" class="node">
<title>Node6</title>
<g id="a_node6"><a xlink:title=" ">
<polygon fill="white" stroke="#bfbfbf" points="181,-56.5 181,-75.5 225,-75.5 225,-56.5 181,-56.5"/>
<text text-anchor="middle" x="203" y="-63.5" font-family="Helvetica,sans-Serif" font-size="10.00">vector</text>
</a>
</g>
</g>
<!-- Node1&#45;&gt;Node6 -->
<g id="edge10" class="edge">
<title>Node1&#45;&gt;Node6</title>
<path fill="none" stroke="midnightblue" d="M231.57,-168.37C226.54,-150.54 214.92,-109.3 208.15,-85.27"/>
<polygon fill="midnightblue" stroke="midnightblue" points="211.5,-84.27 205.42,-75.59 204.77,-86.17 211.5,-84.27"/>
</g>
<!-- Node7 -->
<g id="node7" class="node">
<title>Node7</title>
<g id="a_node7"><a xlink:title=" ">
<polygon fill="white" stroke="#bfbfbf" points="281.5,-112.5 281.5,-131.5 316.5,-131.5 316.5,-112.5 281.5,-112.5"/>
<text text-anchor="middle" x="299" y="-119.5" font-family="Helvetica,sans-Serif" font-size="10.00">map</text>
</a>
</g>
</g>
<!-- Node1&#45;&gt;Node7 -->
<g id="edge8" class="edge">
<title>Node1&#45;&gt;Node7</title>
<path fill="none" stroke="midnightblue" d="M244.44,-168.32C254.15,-160.26 268.82,-148.08 280.5,-138.37"/>
<polygon fill="midnightblue" stroke="midnightblue" points="282.91,-140.92 288.37,-131.83 278.44,-135.53 282.91,-140.92"/>
</g>
<!-- Node3 -->
<g id="node3" class="node">
<title>Node3</title>
<g id="a_node3"><a xlink:href="device_8hpp.html" target="_top" xlink:title=" ">
<polygon fill="white" stroke="black" points="61,-56.5 61,-75.5 125,-75.5 125,-56.5 61,-56.5"/>
<text text-anchor="middle" x="93" y="-63.5" font-family="Helvetica,sans-Serif" font-size="10.00">device.hpp</text>
</a>
</g>
</g>
<!-- Node2&#45;&gt;Node3 -->
<g id="edge2" class="edge">
<title>Node2&#45;&gt;Node3</title>
<path fill="none" stroke="midnightblue" d="M141.68,-112.32C133.11,-104.34 120.19,-92.31 109.81,-82.65"/>
<polygon fill="midnightblue" stroke="midnightblue" points="112.19,-80.09 102.49,-75.83 107.42,-85.21 112.19,-80.09"/>
</g>
<!-- Node4 -->
<g id="node4" class="node">
<title>Node4</title>
<g id="a_node4"><a xlink:title=" ">
<polygon fill="white" stroke="#bfbfbf" points="0,-0.5 0,-19.5 98,-19.5 98,-0.5 0,-0.5"/>
<text text-anchor="middle" x="49" y="-7.5" font-family="Helvetica,sans-Serif" font-size="10.00">nlohmann/json.hpp</text>
</a>
</g>
</g>
<!-- Node2&#45;&gt;Node4 -->
<g id="edge5" class="edge">
<title>Node2&#45;&gt;Node4</title>
<path fill="none" stroke="midnightblue" d="M115.13,-114.49C93.04,-108.47 66.29,-97.11 52,-76 42.9,-62.57 43.07,-43.75 44.97,-29.82"/>
<polygon fill="midnightblue" stroke="midnightblue" points="48.43,-30.34 46.72,-19.89 41.54,-29.13 48.43,-30.34"/>
</g>
<!-- Node2&#45;&gt;Node5 -->
<g id="edge6" class="edge">
<title>Node2&#45;&gt;Node5</title>
<path fill="none" stroke="midnightblue" d="M151.16,-112.37C151.48,-94.62 152.22,-53.67 152.66,-29.6"/>
<polygon fill="midnightblue" stroke="midnightblue" points="156.16,-29.65 152.84,-19.59 149.16,-29.53 156.16,-29.65"/>
</g>
<!-- Node2&#45;&gt;Node6 -->
<g id="edge7" class="edge">
<title>Node2&#45;&gt;Node6</title>
<path fill="none" stroke="midnightblue" d="M159.59,-112.08C167.16,-104.22 178.38,-92.57 187.51,-83.08"/>
<polygon fill="midnightblue" stroke="midnightblue" points="190.16,-85.38 194.57,-75.75 185.12,-80.53 190.16,-85.38"/>
</g>
<!-- Node3&#45;&gt;Node4 -->
<g id="edge3" class="edge">
<title>Node3&#45;&gt;Node4</title>
<path fill="none" stroke="midnightblue" d="M85.73,-56.08C79.46,-48.38 70.21,-37.03 62.57,-27.65"/>
<polygon fill="midnightblue" stroke="midnightblue" points="65.16,-25.29 56.13,-19.75 59.73,-29.71 65.16,-25.29"/>
</g>
<!-- Node3&#45;&gt;Node5 -->
<g id="edge4" class="edge">
<title>Node3&#45;&gt;Node5</title>
<path fill="none" stroke="midnightblue" d="M102.64,-56.32C111.51,-48.34 124.87,-36.31 135.61,-26.65"/>
<polygon fill="midnightblue" stroke="midnightblue" points="138.09,-29.13 143.18,-19.83 133.41,-23.92 138.09,-29.13"/>
</g>
</g>
</svg>
