<?xml version="1.0" encoding="UTF-8" standalone="no"?>
<!DOCTYPE svg PUBLIC "-//W3C//DTD SVG 1.1//EN"
 "http://www.w3.org/Graphics/SVG/1.1/DTD/svg11.dtd">
<!-- Generated by graphviz version 3.0.0 (0)
 -->
<!-- Title: include/topology.hpp Pages: 1 -->
<svg width="233pt" height="140pt"
 viewBox="0.00 0.00 233.00 140.00" xmlns="http://www.w3.org/2000/svg" xmlns:xlink="http://www.w3.org/1999/xlink">
<g id="graph0" class="graph" transform="scale(1 1) rotate(0) translate(4 136)">
<title>include/topology.hpp</title>
<polygon fill="white" stroke="transparent" points="-4,4 -4,-136 229,-136 229,4 -4,4"/>
<!-- Node1 -->
<g id="node1" class="node">
<title>Node1</title>
<g id="a_node1"><a xlink:title=" ">
<polygon fill="#bfbfbf" stroke="black" points="70.5,-112.5 70.5,-131.5 175.5,-131.5 175.5,-112.5 70.5,-112.5"/>
<text text-anchor="middle" x="123" y="-119.5" font-family="Helvetica,sans-Serif" font-size="10.00">include/topology.hpp</text>
</a>
</g>
</g>
<!-- Node2 -->
<g id="node2" class="node">
<title>Node2</title>
<g id="a_node2"><a xlink:href="device_8hpp.html" target="_top" xlink:title=" ">
<polygon fill="white" stroke="black" points="61,-56.5 61,-75.5 125,-75.5 125,-56.5 61,-56.5"/>
<text text-anchor="middle" x="93" y="-63.5" font-family="Helvetica,sans-Serif" font-size="10.00">device.hpp</text>
</a>
</g>
</g>
<!-- Node1&#45;&gt;Node2 -->
<g id="edge1" class="edge">
<title>Node1&#45;&gt;Node2</title>
<path fill="none" stroke="midnightblue" d="M118.05,-112.08C113.9,-104.61 107.85,-93.72 102.73,-84.52"/>
<polygon fill="midnightblue" stroke="midnightblue" points="105.78,-82.79 97.86,-75.75 99.66,-86.19 105.78,-82.79"/>
</g>
<!-- Node3 -->
<g id="node3" class="node">
<title>Node3</title>
<g id="a_node3"><a xlink:title=" ">
<polygon fill="white" stroke="#bfbfbf" points="0,-0.5 0,-19.5 98,-19.5 98,-0.5 0,-0.5"/>
<text text-anchor="middle" x="49" y="-7.5" font-family="Helvetica,sans-Serif" font-size="10.00">nlohmann/json.hpp</text>
</a>
</g>
</g>
<!-- Node1&#45;&gt;Node3 -->
<g id="edge4" class="edge">
<title>Node1&#45;&gt;Node3</title>
<path fill="none" stroke="midnightblue" d="M98.45,-112.39C82.24,-105.3 62.18,-93.54 52,-76 43.94,-62.11 43.9,-43.6 45.47,-29.88"/>
<polygon fill="midnightblue" stroke="midnightblue" points="48.98,-30.11 47.02,-19.7 42.05,-29.06 48.98,-30.11"/>
</g>
<!-- Node4 -->
<g id="node4" class="node">
<title>Node4</title>
<g id="a_node4"><a xlink:title=" ">
<polygon fill="white" stroke="#bfbfbf" points="124.5,-0.5 124.5,-19.5 165.5,-19.5 165.5,-0.5 124.5,-0.5"/>
<text text-anchor="middle" x="145" y="-7.5" font-family="Helvetica,sans-Serif" font-size="10.00">string</text>
</a>
</g>
</g>
<!-- Node1&#45;&gt;Node4 -->
<g id="edge5" class="edge">
<title>Node1&#45;&gt;Node4</title>
<path fill="none" stroke="midnightblue" d="M125.29,-112.41C127.66,-103.39 131.36,-88.76 134,-76 137.19,-60.57 140.13,-42.94 142.17,-29.93"/>
<polygon fill="midnightblue" stroke="midnightblue" points="145.65,-30.28 143.71,-19.87 138.73,-29.22 145.65,-30.28"/>
</g>
<!-- Node5 -->
<g id="node5" class="node">
<title>Node5</title>
<g id="a_node5"><a xlink:title=" ">
<polygon fill="white" stroke="#bfbfbf" points="181,-56.5 181,-75.5 225,-75.5 225,-56.5 181,-56.5"/>
<text text-anchor="middle" x="203" y="-63.5" font-family="Helvetica,sans-Serif" font-size="10.00">vector</text>
</a>
</g>
</g>
<!-- Node1&#45;&gt;Node5 -->
<g id="edge6" class="edge">
<title>Node1&#45;&gt;Node5</title>
<path fill="none" stroke="midnightblue" d="M135.85,-112.32C148.22,-103.98 167.13,-91.21 181.74,-81.35"/>
<polygon fill="midnightblue" stroke="midnightblue" points="183.85,-84.15 190.18,-75.65 179.93,-78.35 183.85,-84.15"/>
</g>
<!-- Node2&#45;&gt;Node3 -->
<g id="edge2" class="edge">
<title>Node2&#45;&gt;Node3</title>
<path fill="none" stroke="midnightblue" d="M85.73,-56.08C79.46,-48.38 70.21,-37.03 62.57,-27.65"/>
<polygon fill="midnightblue" stroke="midnightblue" points="65.16,-25.29 56.13,-19.75 59.73,-29.71 65.16,-25.29"/>
</g>
<!-- Node2&#45;&gt;Node4 -->
<g id="edge3" class="edge">
<title>Node2&#45;&gt;Node4</title>
<path fill="none" stroke="midnightblue" d="M101.59,-56.08C109.16,-48.22 120.38,-36.57 129.51,-27.08"/>
<polygon fill="midnightblue" stroke="midnightblue" points="132.16,-29.38 136.57,-19.75 127.12,-24.53 132.16,-29.38"/>
</g>
</g>
</svg>
