<?xml version="1.0" encoding="UTF-8" standalone="no"?>
<!DOCTYPE svg PUBLIC "-//W3C//DTD SVG 1.1//EN"
 "http://www.w3.org/Graphics/SVG/1.1/DTD/svg11.dtd">
<!-- Generated by graphviz version 3.0.0 (0)
 -->
<!-- Title: src/topology.cpp Pages: 1 -->
<svg width="576pt" height="196pt"
 viewBox="0.00 0.00 575.80 196.00" xmlns="http://www.w3.org/2000/svg" xmlns:xlink="http://www.w3.org/1999/xlink">
<g id="graph0" class="graph" transform="scale(1 1) rotate(0) translate(4 192)">
<title>src/topology.cpp</title>
<polygon fill="white" stroke="transparent" points="-4,4 -4,-192 571.8,-192 571.8,4 -4,4"/>
<!-- Node1 -->
<g id="node1" class="node">
<title>Node1</title>
<g id="a_node1"><a xlink:title=" ">
<polygon fill="#bfbfbf" stroke="black" points="227.5,-168.5 227.5,-187.5 315.5,-187.5 315.5,-168.5 227.5,-168.5"/>
<text text-anchor="middle" x="271.5" y="-175.5" font-family="Helvetica,sans-Serif" font-size="10.00">src/topology.cpp</text>
</a>
</g>
</g>
<!-- Node2 -->
<g id="node2" class="node">
<title>Node2</title>
<g id="a_node2"><a xlink:title=" ">
<polygon fill="white" stroke="#bfbfbf" points="0,-112.5 0,-131.5 59,-131.5 59,-112.5 0,-112.5"/>
<text text-anchor="middle" x="29.5" y="-119.5" font-family="Helvetica,sans-Serif" font-size="10.00">exception</text>
</a>
</g>
</g>
<!-- Node1&#45;&gt;Node2 -->
<g id="edge1" class="edge">
<title>Node1&#45;&gt;Node2</title>
<path fill="none" stroke="midnightblue" d="M232.56,-168.47C193.76,-159.95 132.19,-146.37 69.39,-132.19"/>
<polygon fill="midnightblue" stroke="midnightblue" points="69.83,-128.7 59.3,-129.91 68.29,-135.53 69.83,-128.7"/>
</g>
<!-- Node3 -->
<g id="node3" class="node">
<title>Node3</title>
<g id="a_node3"><a xlink:title=" ">
<polygon fill="white" stroke="#bfbfbf" points="77.5,-112.5 77.5,-131.5 131.5,-131.5 131.5,-112.5 77.5,-112.5"/>
<text text-anchor="middle" x="104.5" y="-119.5" font-family="Helvetica,sans-Serif" font-size="10.00">iostream</text>
</a>
</g>
</g>
<!-- Node1&#45;&gt;Node3 -->
<g id="edge2" class="edge">
<title>Node1&#45;&gt;Node3</title>
<path fill="none" stroke="midnightblue" d="M245.04,-168.44C216.82,-159.32 171.96,-144.81 140.53,-134.65"/>
<polygon fill="midnightblue" stroke="midnightblue" points="141.43,-131.26 130.84,-131.52 139.28,-137.92 141.43,-131.26"/>
</g>
<!-- Node4 -->
<g id="node4" class="node">
<title>Node4</title>
<g id="a_node4"><a xlink:title=" ">
<polygon fill="white" stroke="#bfbfbf" points="149.5,-112.5 149.5,-131.5 201.5,-131.5 201.5,-112.5 149.5,-112.5"/>
<text text-anchor="middle" x="175.5" y="-119.5" font-family="Helvetica,sans-Serif" font-size="10.00">memory</text>
</a>
</g>
</g>
<!-- Node1&#45;&gt;Node4 -->
<g id="edge3" class="edge">
<title>Node1&#45;&gt;Node4</title>
<path fill="none" stroke="midnightblue" d="M256.08,-168.32C240.96,-159.82 217.68,-146.73 200.03,-136.8"/>
<polygon fill="midnightblue" stroke="midnightblue" points="201.32,-133.51 190.89,-131.65 197.89,-139.61 201.32,-133.51"/>
</g>
<!-- Node5 -->
<g id="node5" class="node">
<title>Node5</title>
<g id="a_node5"><a xlink:href="device_8hpp.html" target="_top" xlink:title=" ">
<polygon fill="white" stroke="black" points="319.5,-56.5 319.5,-75.5 383.5,-75.5 383.5,-56.5 319.5,-56.5"/>
<text text-anchor="middle" x="351.5" y="-63.5" font-family="Helvetica,sans-Serif" font-size="10.00">device.hpp</text>
</a>
</g>
</g>
<!-- Node1&#45;&gt;Node5 -->
<g id="edge4" class="edge">
<title>Node1&#45;&gt;Node5</title>
<path fill="none" stroke="midnightblue" d="M288.68,-168.41C302.45,-160.68 321.27,-148.07 332.5,-132 342.07,-118.3 346.87,-99.76 349.25,-85.99"/>
<polygon fill="midnightblue" stroke="midnightblue" points="352.76,-86.15 350.73,-75.76 345.83,-85.15 352.76,-86.15"/>
</g>
<!-- Node8 -->
<g id="node8" class="node">
<title>Node8</title>
<g id="a_node8"><a xlink:href="nmos_8hpp.html" target="_top" xlink:title=" ">
<polygon fill="white" stroke="black" points="379.5,-112.5 379.5,-131.5 475.5,-131.5 475.5,-112.5 379.5,-112.5"/>
<text text-anchor="middle" x="427.5" y="-119.5" font-family="Helvetica,sans-Serif" font-size="10.00">devices/nmos.hpp</text>
</a>
</g>
</g>
<!-- Node1&#45;&gt;Node8 -->
<g id="edge7" class="edge">
<title>Node1&#45;&gt;Node8</title>
<path fill="none" stroke="midnightblue" d="M296.22,-168.44C322.35,-159.4 363.76,-145.06 393.08,-134.92"/>
<polygon fill="midnightblue" stroke="midnightblue" points="394.59,-138.1 402.9,-131.52 392.3,-131.48 394.59,-138.1"/>
</g>
<!-- Node9 -->
<g id="node9" class="node">
<title>Node9</title>
<g id="a_node9"><a xlink:href="resistor_8hpp.html" target="_top" xlink:title=" ">
<polygon fill="white" stroke="black" points="219.5,-112.5 219.5,-131.5 323.5,-131.5 323.5,-112.5 219.5,-112.5"/>
<text text-anchor="middle" x="271.5" y="-119.5" font-family="Helvetica,sans-Serif" font-size="10.00">devices/resistor.hpp</text>
</a>
</g>
</g>
<!-- Node1&#45;&gt;Node9 -->
<g id="edge11" class="edge">
<title>Node1&#45;&gt;Node9</title>
<path fill="none" stroke="midnightblue" d="M271.5,-168.08C271.5,-161.01 271.5,-150.86 271.5,-141.99"/>
<polygon fill="midnightblue" stroke="midnightblue" points="275,-141.75 271.5,-131.75 268,-141.75 275,-141.75"/>
</g>
<!-- Node10 -->
<g id="node10" class="node">
<title>Node10</title>
<g id="a_node10"><a xlink:href="topology_8hpp.html" target="_top" xlink:title=" ">
<polygon fill="white" stroke="black" points="494,-112.5 494,-131.5 565,-131.5 565,-112.5 494,-112.5"/>
<text text-anchor="middle" x="529.5" y="-119.5" font-family="Helvetica,sans-Serif" font-size="10.00">topology.hpp</text>
</a>
</g>
</g>
<!-- Node1&#45;&gt;Node10 -->
<g id="edge15" class="edge">
<title>Node1&#45;&gt;Node10</title>
<path fill="none" stroke="midnightblue" d="M312.38,-168.44C359.07,-158.67 435.27,-142.72 483.87,-132.55"/>
<polygon fill="midnightblue" stroke="midnightblue" points="484.72,-135.95 493.8,-130.47 483.29,-129.1 484.72,-135.95"/>
</g>
<!-- Node6 -->
<g id="node6" class="node">
<title>Node6</title>
<g id="a_node6"><a xlink:title=" ">
<polygon fill="white" stroke="#bfbfbf" points="307.5,-0.5 307.5,-19.5 405.5,-19.5 405.5,-0.5 307.5,-0.5"/>
<text text-anchor="middle" x="356.5" y="-7.5" font-family="Helvetica,sans-Serif" font-size="10.00">nlohmann/json.hpp</text>
</a>
</g>
</g>
<!-- Node5&#45;&gt;Node6 -->
<g id="edge5" class="edge">
<title>Node5&#45;&gt;Node6</title>
<path fill="none" stroke="midnightblue" d="M352.33,-56.08C352.98,-49.01 353.92,-38.86 354.74,-29.99"/>
<polygon fill="midnightblue" stroke="midnightblue" points="358.25,-30.03 355.69,-19.75 351.28,-29.39 358.25,-30.03"/>
</g>
<!-- Node7 -->
<g id="node7" class="node">
<title>Node7</title>
<g id="a_node7"><a xlink:title=" ">
<polygon fill="white" stroke="#bfbfbf" points="426,-0.5 426,-19.5 467,-19.5 467,-0.5 426,-0.5"/>
<text text-anchor="middle" x="446.5" y="-7.5" font-family="Helvetica,sans-Serif" font-size="10.00">string</text>
</a>
</g>
</g>
<!-- Node5&#45;&gt;Node7 -->
<g id="edge6" class="edge">
<title>Node5&#45;&gt;Node7</title>
<path fill="none" stroke="midnightblue" d="M366.76,-56.32C381.72,-47.82 404.75,-34.73 422.23,-24.8"/>
<polygon fill="midnightblue" stroke="midnightblue" points="424.31,-27.64 431.27,-19.65 420.85,-21.55 424.31,-27.64"/>
</g>
<!-- Node8&#45;&gt;Node5 -->
<g id="edge8" class="edge">
<title>Node8&#45;&gt;Node5</title>
<path fill="none" stroke="midnightblue" d="M415.29,-112.32C403.72,-104.11 386.12,-91.6 372.34,-81.81"/>
<polygon fill="midnightblue" stroke="midnightblue" points="374.11,-78.77 363.93,-75.83 370.06,-84.48 374.11,-78.77"/>
</g>
<!-- Node8&#45;&gt;Node6 -->
<g id="edge9" class="edge">
<title>Node8&#45;&gt;Node6</title>
<path fill="none" stroke="midnightblue" d="M423.44,-112.3C417.36,-99.56 405.23,-75.24 392.5,-56 385.95,-46.09 377.73,-35.69 370.8,-27.39"/>
<polygon fill="midnightblue" stroke="midnightblue" points="373.31,-24.95 364.17,-19.61 367.99,-29.49 373.31,-24.95"/>
</g>
<!-- Node8&#45;&gt;Node7 -->
<g id="edge10" class="edge">
<title>Node8&#45;&gt;Node7</title>
<path fill="none" stroke="midnightblue" d="M428.99,-112.37C432.06,-94.62 439.13,-53.67 443.29,-29.6"/>
<polygon fill="midnightblue" stroke="midnightblue" points="446.76,-30.04 445.02,-19.59 439.86,-28.85 446.76,-30.04"/>
</g>
<!-- Node9&#45;&gt;Node5 -->
<g id="edge12" class="edge">
<title>Node9&#45;&gt;Node5</title>
<path fill="none" stroke="midnightblue" d="M284.35,-112.32C296.72,-103.98 315.63,-91.21 330.24,-81.35"/>
<polygon fill="midnightblue" stroke="midnightblue" points="332.35,-84.15 338.68,-75.65 328.43,-78.35 332.35,-84.15"/>
</g>
<!-- Node9&#45;&gt;Node6 -->
<g id="edge13" class="edge">
<title>Node9&#45;&gt;Node6</title>
<path fill="none" stroke="midnightblue" d="M269.91,-112.19C268.01,-98.88 266.33,-73.34 277.5,-56 287.06,-41.17 303.34,-30.71 318.64,-23.63"/>
<polygon fill="midnightblue" stroke="midnightblue" points="320.15,-26.79 327.97,-19.65 317.4,-20.35 320.15,-26.79"/>
</g>
<!-- Node9&#45;&gt;Node7 -->
<g id="edge14" class="edge">
<title>Node9&#45;&gt;Node7</title>
<path fill="none" stroke="midnightblue" d="M274.53,-112.06C279.72,-98.09 291.59,-71.13 310.5,-56 318.93,-49.25 378.51,-30.95 415.97,-19.88"/>
<polygon fill="midnightblue" stroke="midnightblue" points="417.28,-23.14 425.88,-16.96 415.3,-16.42 417.28,-23.14"/>
</g>
<!-- Node10&#45;&gt;Node5 -->
<g id="edge16" class="edge">
<title>Node10&#45;&gt;Node5</title>
<path fill="none" stroke="midnightblue" d="M501.3,-112.44C471.09,-103.28 422.99,-88.69 389.47,-78.52"/>
<polygon fill="midnightblue" stroke="midnightblue" points="390.16,-75.07 379.57,-75.52 388.13,-81.77 390.16,-75.07"/>
</g>
<!-- Node10&#45;&gt;Node6 -->
<g id="edge17" class="edge">
<title>Node10&#45;&gt;Node6</title>
<path fill="none" stroke="midnightblue" d="M532.71,-112.36C537.13,-98.82 543.21,-72.42 530.5,-56 522.99,-46.3 459,-31.53 410.79,-21.58"/>
<polygon fill="midnightblue" stroke="midnightblue" points="411.26,-18.11 400.77,-19.54 409.86,-24.96 411.26,-18.11"/>
</g>
<!-- Node10&#45;&gt;Node7 -->
<g id="edge18" class="edge">
<title>Node10&#45;&gt;Node7</title>
<path fill="none" stroke="midnightblue" d="M540.14,-112.21C554.4,-99.35 576.48,-74.9 563.5,-56 544.27,-28 505.01,-17.42 477.28,-13.42"/>
<polygon fill="midnightblue" stroke="midnightblue" points="477.64,-9.94 467.28,-12.19 476.78,-16.88 477.64,-9.94"/>
</g>
<!-- Node11 -->
<g id="node11" class="node">
<title>Node11</title>
<g id="a_node11"><a xlink:title=" ">
<polygon fill="white" stroke="#bfbfbf" points="477.5,-56.5 477.5,-75.5 521.5,-75.5 521.5,-56.5 477.5,-56.5"/>
<text text-anchor="middle" x="499.5" y="-63.5" font-family="Helvetica,sans-Serif" font-size="10.00">vector</text>
</a>
</g>
</g>
<!-- Node10&#45;&gt;Node11 -->
<g id="edge19" class="edge">
<title>Node10&#45;&gt;Node11</title>
<path fill="none" stroke="midnightblue" d="M524.55,-112.08C520.4,-104.61 514.35,-93.72 509.23,-84.52"/>
<polygon fill="midnightblue" stroke="midnightblue" points="512.28,-82.79 504.36,-75.75 506.16,-86.19 512.28,-82.79"/>
</g>
</g>
</svg>
