<?xml version="1.0" encoding="UTF-8" standalone="no"?>
<!DOCTYPE svg PUBLIC "-//W3C//DTD SVG 1.1//EN"
 "http://www.w3.org/Graphics/SVG/1.1/DTD/svg11.dtd">
<!-- Generated by graphviz version 3.0.0 (0)
 -->
<!-- Title: src/topologyList.cpp Pages: 1 -->
<svg width="353pt" height="252pt"
 viewBox="0.00 0.00 352.50 252.00" xmlns="http://www.w3.org/2000/svg" xmlns:xlink="http://www.w3.org/1999/xlink">
<g id="graph0" class="graph" transform="scale(1 1) rotate(0) translate(4 248)">
<title>src/topologyList.cpp</title>
<polygon fill="white" stroke="transparent" points="-4,4 -4,-248 348.5,-248 348.5,4 -4,4"/>
<!-- Node1 -->
<g id="node1" class="node">
<title>Node1</title>
<g id="a_node1"><a xlink:title=" ">
<polygon fill="#bfbfbf" stroke="black" points="171,-224.5 171,-243.5 275,-243.5 275,-224.5 171,-224.5"/>
<text text-anchor="middle" x="223" y="-231.5" font-family="Helvetica,sans-Serif" font-size="10.00">src/topologyList.cpp</text>
</a>
</g>
</g>
<!-- Node2 -->
<g id="node2" class="node">
<title>Node2</title>
<g id="a_node2"><a xlink:href="topologyList_8hpp.html" target="_top" xlink:title=" ">
<polygon fill="white" stroke="black" points="179,-168.5 179,-187.5 267,-187.5 267,-168.5 179,-168.5"/>
<text text-anchor="middle" x="223" y="-175.5" font-family="Helvetica,sans-Serif" font-size="10.00">topologyList.hpp</text>
</a>
</g>
</g>
<!-- Node1&#45;&gt;Node2 -->
<g id="edge1" class="edge">
<title>Node1&#45;&gt;Node2</title>
<path fill="none" stroke="midnightblue" d="M223,-224.08C223,-217.01 223,-206.86 223,-197.99"/>
<polygon fill="midnightblue" stroke="midnightblue" points="226.5,-197.75 223,-187.75 219.5,-197.75 226.5,-197.75"/>
</g>
<!-- Node3 -->
<g id="node3" class="node">
<title>Node3</title>
<g id="a_node3"><a xlink:href="topology_8hpp.html" target="_top" xlink:title=" ">
<polygon fill="white" stroke="black" points="115.5,-112.5 115.5,-131.5 186.5,-131.5 186.5,-112.5 115.5,-112.5"/>
<text text-anchor="middle" x="151" y="-119.5" font-family="Helvetica,sans-Serif" font-size="10.00">topology.hpp</text>
</a>
</g>
</g>
<!-- Node1&#45;&gt;Node3 -->
<g id="edge12" class="edge">
<title>Node1&#45;&gt;Node3</title>
<path fill="none" stroke="midnightblue" d="M208.81,-224.37C196.8,-216.37 179.99,-203.39 170,-188 160.9,-173.98 156.05,-155.48 153.53,-141.8"/>
<polygon fill="midnightblue" stroke="midnightblue" points="156.95,-140.98 151.93,-131.65 150.03,-142.08 156.95,-140.98"/>
</g>
<!-- Node9 -->
<g id="node9" class="node">
<title>Node9</title>
<g id="a_node9"><a xlink:title=" ">
<polygon fill="white" stroke="#bfbfbf" points="285.5,-168.5 285.5,-187.5 344.5,-187.5 344.5,-168.5 285.5,-168.5"/>
<text text-anchor="middle" x="315" y="-175.5" font-family="Helvetica,sans-Serif" font-size="10.00">exception</text>
</a>
</g>
</g>
<!-- Node1&#45;&gt;Node9 -->
<g id="edge13" class="edge">
<title>Node1&#45;&gt;Node9</title>
<path fill="none" stroke="midnightblue" d="M237.78,-224.32C252.27,-215.82 274.57,-202.73 291.49,-192.8"/>
<polygon fill="midnightblue" stroke="midnightblue" points="293.4,-195.74 300.26,-187.65 289.86,-189.7 293.4,-195.74"/>
</g>
<!-- Node2&#45;&gt;Node3 -->
<g id="edge2" class="edge">
<title>Node2&#45;&gt;Node3</title>
<path fill="none" stroke="midnightblue" d="M211.43,-168.32C200.58,-160.18 184.12,-147.84 171.12,-138.09"/>
<polygon fill="midnightblue" stroke="midnightblue" points="172.88,-135.03 162.78,-131.83 168.68,-140.63 172.88,-135.03"/>
</g>
<!-- Node6 -->
<g id="node6" class="node">
<title>Node6</title>
<g id="a_node6"><a xlink:title=" ">
<polygon fill="white" stroke="#bfbfbf" points="132.5,-0.5 132.5,-19.5 173.5,-19.5 173.5,-0.5 132.5,-0.5"/>
<text text-anchor="middle" x="153" y="-7.5" font-family="Helvetica,sans-Serif" font-size="10.00">string</text>
</a>
</g>
</g>
<!-- Node2&#45;&gt;Node6 -->
<g id="edge10" class="edge">
<title>Node2&#45;&gt;Node6</title>
<path fill="none" stroke="midnightblue" d="M227.01,-168.33C236.07,-147.37 255.72,-92.91 234,-56 223.12,-37.52 201.61,-26.08 183.49,-19.36"/>
<polygon fill="midnightblue" stroke="midnightblue" points="184.45,-16 173.86,-16.1 182.21,-22.63 184.45,-16"/>
</g>
<!-- Node7 -->
<g id="node7" class="node">
<title>Node7</title>
<g id="a_node7"><a xlink:title=" ">
<polygon fill="white" stroke="#bfbfbf" points="181,-56.5 181,-75.5 225,-75.5 225,-56.5 181,-56.5"/>
<text text-anchor="middle" x="203" y="-63.5" font-family="Helvetica,sans-Serif" font-size="10.00">vector</text>
</a>
</g>
</g>
<!-- Node2&#45;&gt;Node7 -->
<g id="edge11" class="edge">
<title>Node2&#45;&gt;Node7</title>
<path fill="none" stroke="midnightblue" d="M221.43,-168.37C218.2,-150.62 210.76,-109.67 206.38,-85.6"/>
<polygon fill="midnightblue" stroke="midnightblue" points="209.79,-84.8 204.56,-75.59 202.91,-86.06 209.79,-84.8"/>
</g>
<!-- Node8 -->
<g id="node8" class="node">
<title>Node8</title>
<g id="a_node8"><a xlink:title=" ">
<polygon fill="white" stroke="#bfbfbf" points="281.5,-112.5 281.5,-131.5 316.5,-131.5 316.5,-112.5 281.5,-112.5"/>
<text text-anchor="middle" x="299" y="-119.5" font-family="Helvetica,sans-Serif" font-size="10.00">map</text>
</a>
</g>
</g>
<!-- Node2&#45;&gt;Node8 -->
<g id="edge9" class="edge">
<title>Node2&#45;&gt;Node8</title>
<path fill="none" stroke="midnightblue" d="M235.21,-168.32C246.78,-160.11 264.38,-147.6 278.16,-137.81"/>
<polygon fill="midnightblue" stroke="midnightblue" points="280.44,-140.48 286.57,-131.83 276.39,-134.77 280.44,-140.48"/>
</g>
<!-- Node4 -->
<g id="node4" class="node">
<title>Node4</title>
<g id="a_node4"><a xlink:href="device_8hpp.html" target="_top" xlink:title=" ">
<polygon fill="white" stroke="black" points="61,-56.5 61,-75.5 125,-75.5 125,-56.5 61,-56.5"/>
<text text-anchor="middle" x="93" y="-63.5" font-family="Helvetica,sans-Serif" font-size="10.00">device.hpp</text>
</a>
</g>
</g>
<!-- Node3&#45;&gt;Node4 -->
<g id="edge3" class="edge">
<title>Node3&#45;&gt;Node4</title>
<path fill="none" stroke="midnightblue" d="M141.68,-112.32C133.11,-104.34 120.19,-92.31 109.81,-82.65"/>
<polygon fill="midnightblue" stroke="midnightblue" points="112.19,-80.09 102.49,-75.83 107.42,-85.21 112.19,-80.09"/>
</g>
<!-- Node5 -->
<g id="node5" class="node">
<title>Node5</title>
<g id="a_node5"><a xlink:title=" ">
<polygon fill="white" stroke="#bfbfbf" points="0,-0.5 0,-19.5 98,-19.5 98,-0.5 0,-0.5"/>
<text text-anchor="middle" x="49" y="-7.5" font-family="Helvetica,sans-Serif" font-size="10.00">nlohmann/json.hpp</text>
</a>
</g>
</g>
<!-- Node3&#45;&gt;Node5 -->
<g id="edge6" class="edge">
<title>Node3&#45;&gt;Node5</title>
<path fill="none" stroke="midnightblue" d="M115.13,-114.49C93.04,-108.47 66.29,-97.11 52,-76 42.9,-62.57 43.07,-43.75 44.97,-29.82"/>
<polygon fill="midnightblue" stroke="midnightblue" points="48.43,-30.34 46.72,-19.89 41.54,-29.13 48.43,-30.34"/>
</g>
<!-- Node3&#45;&gt;Node6 -->
<g id="edge7" class="edge">
<title>Node3&#45;&gt;Node6</title>
<path fill="none" stroke="midnightblue" d="M151.16,-112.37C151.48,-94.62 152.22,-53.67 152.66,-29.6"/>
<polygon fill="midnightblue" stroke="midnightblue" points="156.16,-29.65 152.84,-19.59 149.16,-29.53 156.16,-29.65"/>
</g>
<!-- Node3&#45;&gt;Node7 -->
<g id="edge8" class="edge">
<title>Node3&#45;&gt;Node7</title>
<path fill="none" stroke="midnightblue" d="M159.59,-112.08C167.16,-104.22 178.38,-92.57 187.51,-83.08"/>
<polygon fill="midnightblue" stroke="midnightblue" points="190.16,-85.38 194.57,-75.75 185.12,-80.53 190.16,-85.38"/>
</g>
<!-- Node4&#45;&gt;Node5 -->
<g id="edge4" class="edge">
<title>Node4&#45;&gt;Node5</title>
<path fill="none" stroke="midnightblue" d="M85.73,-56.08C79.46,-48.38 70.21,-37.03 62.57,-27.65"/>
<polygon fill="midnightblue" stroke="midnightblue" points="65.16,-25.29 56.13,-19.75 59.73,-29.71 65.16,-25.29"/>
</g>
<!-- Node4&#45;&gt;Node6 -->
<g id="edge5" class="edge">
<title>Node4&#45;&gt;Node6</title>
<path fill="none" stroke="midnightblue" d="M102.64,-56.32C111.51,-48.34 124.87,-36.31 135.61,-26.65"/>
<polygon fill="midnightblue" stroke="midnightblue" points="138.09,-29.13 143.18,-19.83 133.41,-23.92 138.09,-29.13"/>
</g>
</g>
</svg>
