<?xml version="1.0" encoding="UTF-8" standalone="no"?>
<!DOCTYPE svg PUBLIC "-//W3C//DTD SVG 1.1//EN"
 "http://www.w3.org/Graphics/SVG/1.1/DTD/svg11.dtd">
<!-- Generated by graphviz version 3.0.0 (0)
 -->
<!-- Title: src/topologyIO.cpp Pages: 1 -->
<!--zoomable 252 -->
<svg id="main" version="1.1" xmlns="http://www.w3.org/2000/svg" xmlns:xlink="http://www.w3.org/1999/xlink" xml:space="preserve" onload="init(evt)">
<style type="text/css"><![CDATA[
.edge:hover path { stroke: red; }
.edge:hover polygon { stroke: red; fill: red; }
]]></style>
<script type="text/javascript"><![CDATA[
var edges = document.getElementsByTagName('g');
if (edges && edges.length) {
  for (var i=0;i<edges.length;i++) {
    if (edges[i].id.substr(0,4)=='edge') {
      edges[i].setAttribute('class','edge');
    }
  }
}
]]></script>
        <defs>
                <circle id="rim" cx="0" cy="0" r="7"/>
                <circle id="rim2" cx="0" cy="0" r="3.5"/>
                <g id="zoomPlus">
                        <use xlink:href="#rim" fill="#404040">
                                <set attributeName="fill" to="#808080" begin="zoomplus.mouseover" end="zoomplus.mouseout"/>
                        </use>
                        <path d="M-4,0h8M0,-4v8" fill="none" stroke="white" stroke-width="1.5" pointer-events="none"/>
                </g>
                <g id="zoomMin">
                        <use xlink:href="#rim" fill="#404040">
                                <set attributeName="fill" to="#808080" begin="zoomminus.mouseover" end="zoomminus.mouseout"/>
                        </use>
                        <path d="M-4,0h8" fill="none" stroke="white" stroke-width="1.5" pointer-events="none"/>
                </g>
                <g id="dirArrow">
                        <path fill="none" stroke="white" stroke-width="1.5" d="M0,-3.0v7 M-2.5,-0.5L0,-3.0L2.5,-0.5"/>
                </g>
               <g id="resetDef">
                       <use xlink:href="#rim2" fill="#404040">
                               <set attributeName="fill" to="#808080" begin="reset.mouseover" end="reset.mouseout"/>
                       </use>
               </g>
        </defs>

<script type="text/javascript">
var viewWidth = 525;
var viewHeight = 252;
var sectionId = 'dynsection-0';
</script>
<script xlink:href="svgpan.js"/>
<svg id="graph" class="graph">
<g id="viewport">
<title>src/topologyIO.cpp</title>
<polygon fill="white" stroke="transparent" points="-4,4 -4,-248 521.22,-248 521.22,4 -4,4"/>
<!-- Node1 -->
<g id="node1" class="node">
<title>Node1</title>
<g id="a_node1"><a xlink:title=" ">
<polygon fill="#bfbfbf" stroke="black" points="249.72,-224.5 249.72,-243.5 348.72,-243.5 348.72,-224.5 249.72,-224.5"/>
<text text-anchor="middle" x="299.22" y="-231.5" font-family="Helvetica,sans-Serif" font-size="10.00">src/topologyIO.cpp</text>
</a>
</g>
</g>
<!-- Node2 -->
<g id="node2" class="node">
<title>Node2</title>
<g id="a_node2"><a xlink:href="topologyIO_8hpp.html" target="_top" xlink:title=" ">
<polygon fill="white" stroke="black" points="24.72,-168.5 24.72,-187.5 107.72,-187.5 107.72,-168.5 24.72,-168.5"/>
<text text-anchor="middle" x="66.22" y="-175.5" font-family="Helvetica,sans-Serif" font-size="10.00">topologyIO.hpp</text>
</a>
</g>
</g>
<!-- Node1&#45;&gt;Node2 -->
<g id="edge1" class="edge">
<title>Node1&#45;&gt;Node2</title>
<path fill="none" stroke="midnightblue" d="M262.3,-224.44C221.83,-215.06 156.8,-199.99 112.84,-189.8"/>
<polygon fill="midnightblue" stroke="midnightblue" points="113.5,-186.36 102.97,-187.52 111.92,-193.18 113.5,-186.36"/>
</g>
<!-- Node4 -->
<g id="node4" class="node">
<title>Node4</title>
<g id="a_node4"><a xlink:title=" ">
<polygon fill="white" stroke="#bfbfbf" points="92.22,-0.5 92.22,-19.5 190.22,-19.5 190.22,-0.5 92.22,-0.5"/>
<text text-anchor="middle" x="141.22" y="-7.5" font-family="Helvetica,sans-Serif" font-size="10.00">nlohmann/json.hpp</text>
</a>
</g>
</g>
<!-- Node1&#45;&gt;Node4 -->
<g id="edge16" class="edge">
<title>Node1&#45;&gt;Node4</title>
<path fill="none" stroke="midnightblue" d="M289.82,-224.19C281.25,-215.68 268.79,-202.04 261.22,-188 232.2,-134.15 260.47,-103.74 222.22,-56 210.56,-41.44 192.85,-30.84 176.96,-23.6"/>
<polygon fill="midnightblue" stroke="midnightblue" points="177.94,-20.22 167.37,-19.52 175.2,-26.66 177.94,-20.22"/>
</g>
<!-- Node6 -->
<g id="node6" class="node">
<title>Node6</title>
<g id="a_node6"><a xlink:href="topology_8hpp.html" target="_top" xlink:title=" ">
<polygon fill="white" stroke="black" points="88.72,-112.5 88.72,-131.5 159.72,-131.5 159.72,-112.5 88.72,-112.5"/>
<text text-anchor="middle" x="124.22" y="-119.5" font-family="Helvetica,sans-Serif" font-size="10.00">topology.hpp</text>
</a>
</g>
</g>
<!-- Node1&#45;&gt;Node6 -->
<g id="edge11" class="edge">
<title>Node1&#45;&gt;Node6</title>
<path fill="none" stroke="midnightblue" d="M285.41,-224.39C270.91,-215.35 247.45,-200.7 227.22,-188 199.3,-170.46 167.18,-150.18 146.34,-136.99"/>
<polygon fill="midnightblue" stroke="midnightblue" points="148.2,-134.03 137.87,-131.64 144.45,-139.94 148.2,-134.03"/>
</g>
<!-- Node8 -->
<g id="node8" class="node">
<title>Node8</title>
<g id="a_node8"><a xlink:title=" ">
<polygon fill="white" stroke="#bfbfbf" points="269.72,-168.5 269.72,-187.5 328.72,-187.5 328.72,-168.5 269.72,-168.5"/>
<text text-anchor="middle" x="299.22" y="-175.5" font-family="Helvetica,sans-Serif" font-size="10.00">exception</text>
</a>
</g>
</g>
<!-- Node1&#45;&gt;Node8 -->
<g id="edge12" class="edge">
<title>Node1&#45;&gt;Node8</title>
<path fill="none" stroke="midnightblue" d="M299.22,-224.08C299.22,-217.01 299.22,-206.86 299.22,-197.99"/>
<polygon fill="midnightblue" stroke="midnightblue" points="302.72,-197.75 299.22,-187.75 295.72,-197.75 302.72,-197.75"/>
</g>
<!-- Node9 -->
<g id="node9" class="node">
<title>Node9</title>
<g id="a_node9"><a xlink:title=" ">
<polygon fill="white" stroke="#bfbfbf" points="347.22,-168.5 347.22,-187.5 397.22,-187.5 397.22,-168.5 347.22,-168.5"/>
<text text-anchor="middle" x="372.22" y="-175.5" font-family="Helvetica,sans-Serif" font-size="10.00">fstream</text>
</a>
</g>
</g>
<!-- Node1&#45;&gt;Node9 -->
<g id="edge13" class="edge">
<title>Node1&#45;&gt;Node9</title>
<path fill="none" stroke="midnightblue" d="M310.95,-224.32C322.06,-216.11 338.97,-203.6 352.21,-193.81"/>
<polygon fill="midnightblue" stroke="midnightblue" points="354.32,-196.59 360.28,-187.83 350.16,-190.97 354.32,-196.59"/>
</g>
<!-- Node10 -->
<g id="node10" class="node">
<title>Node10</title>
<g id="a_node10"><a xlink:title=" ">
<polygon fill="white" stroke="#bfbfbf" points="415.72,-168.5 415.72,-187.5 444.72,-187.5 444.72,-168.5 415.72,-168.5"/>
<text text-anchor="middle" x="430.22" y="-175.5" font-family="Helvetica,sans-Serif" font-size="10.00">ios</text>
</a>
</g>
</g>
<!-- Node1&#45;&gt;Node10 -->
<g id="edge14" class="edge">
<title>Node1&#45;&gt;Node10</title>
<path fill="none" stroke="midnightblue" d="M319.98,-224.44C343.44,-214.77 381.57,-199.05 406.28,-188.87"/>
<polygon fill="midnightblue" stroke="midnightblue" points="407.74,-192.06 415.65,-185.01 405.07,-185.58 407.74,-192.06"/>
</g>
<!-- Node11 -->
<g id="node11" class="node">
<title>Node11</title>
<g id="a_node11"><a xlink:title=" ">
<polygon fill="white" stroke="#bfbfbf" points="463.22,-168.5 463.22,-187.5 517.22,-187.5 517.22,-168.5 463.22,-168.5"/>
<text text-anchor="middle" x="490.22" y="-175.5" font-family="Helvetica,sans-Serif" font-size="10.00">iostream</text>
</a>
</g>
</g>
<!-- Node1&#45;&gt;Node11 -->
<g id="edge15" class="edge">
<title>Node1&#45;&gt;Node11</title>
<path fill="none" stroke="midnightblue" d="M329.49,-224.44C363.14,-214.93 417.49,-199.56 453.54,-189.37"/>
<polygon fill="midnightblue" stroke="midnightblue" points="454.52,-192.73 463.19,-186.64 452.61,-186 454.52,-192.73"/>
</g>
<!-- Node3 -->
<g id="node3" class="node">
<title>Node3</title>
<g id="a_node3"><a xlink:href="device_8hpp.html" target="_top" xlink:title=" ">
<polygon fill="white" stroke="black" points="11.22,-56.5 11.22,-75.5 75.22,-75.5 75.22,-56.5 11.22,-56.5"/>
<text text-anchor="middle" x="43.22" y="-63.5" font-family="Helvetica,sans-Serif" font-size="10.00">device.hpp</text>
</a>
</g>
</g>
<!-- Node2&#45;&gt;Node3 -->
<g id="edge2" class="edge">
<title>Node2&#45;&gt;Node3</title>
<path fill="none" stroke="midnightblue" d="M64.42,-168.37C60.71,-150.62 52.15,-109.67 47.11,-85.6"/>
<polygon fill="midnightblue" stroke="midnightblue" points="50.49,-84.66 45.02,-75.59 43.64,-86.1 50.49,-84.66"/>
</g>
<!-- Node5 -->
<g id="node5" class="node">
<title>Node5</title>
<g id="a_node5"><a xlink:title=" ">
<polygon fill="white" stroke="#bfbfbf" points="22.72,-0.5 22.72,-19.5 63.72,-19.5 63.72,-0.5 22.72,-0.5"/>
<text text-anchor="middle" x="43.22" y="-7.5" font-family="Helvetica,sans-Serif" font-size="10.00">string</text>
</a>
</g>
</g>
<!-- Node2&#45;&gt;Node5 -->
<g id="edge10" class="edge">
<title>Node2&#45;&gt;Node5</title>
<path fill="none" stroke="midnightblue" d="M58.31,-168.4C43.78,-151.95 13.33,-114.28 2.22,-76 -0.25,-67.46 -0.99,-64.29 2.22,-56 6.68,-44.5 15.59,-34.13 23.97,-26.25"/>
<polygon fill="midnightblue" stroke="midnightblue" points="26.46,-28.73 31.68,-19.51 21.85,-23.46 26.46,-28.73"/>
</g>
<!-- Node2&#45;&gt;Node6 -->
<g id="edge5" class="edge">
<title>Node2&#45;&gt;Node6</title>
<path fill="none" stroke="midnightblue" d="M75.54,-168.32C84.12,-160.34 97.04,-148.31 107.41,-138.65"/>
<polygon fill="midnightblue" stroke="midnightblue" points="109.8,-141.21 114.74,-131.83 105.03,-136.09 109.8,-141.21"/>
</g>
<!-- Node3&#45;&gt;Node4 -->
<g id="edge3" class="edge">
<title>Node3&#45;&gt;Node4</title>
<path fill="none" stroke="midnightblue" d="M58.97,-56.32C74.54,-47.74 98.6,-34.49 116.68,-24.52"/>
<polygon fill="midnightblue" stroke="midnightblue" points="118.45,-27.55 125.52,-19.65 115.07,-21.42 118.45,-27.55"/>
</g>
<!-- Node3&#45;&gt;Node5 -->
<g id="edge4" class="edge">
<title>Node3&#45;&gt;Node5</title>
<path fill="none" stroke="midnightblue" d="M43.22,-56.08C43.22,-49.01 43.22,-38.86 43.22,-29.99"/>
<polygon fill="midnightblue" stroke="midnightblue" points="46.72,-29.75 43.22,-19.75 39.72,-29.75 46.72,-29.75"/>
</g>
<!-- Node6&#45;&gt;Node3 -->
<g id="edge6" class="edge">
<title>Node6&#45;&gt;Node3</title>
<path fill="none" stroke="midnightblue" d="M111.21,-112.32C98.69,-103.98 79.54,-91.21 64.75,-81.35"/>
<polygon fill="midnightblue" stroke="midnightblue" points="66.47,-78.29 56.21,-75.65 62.59,-84.11 66.47,-78.29"/>
</g>
<!-- Node6&#45;&gt;Node4 -->
<g id="edge7" class="edge">
<title>Node6&#45;&gt;Node4</title>
<path fill="none" stroke="midnightblue" d="M125.56,-112.37C128.3,-94.62 134.63,-53.67 138.35,-29.6"/>
<polygon fill="midnightblue" stroke="midnightblue" points="141.83,-30.01 139.9,-19.59 134.91,-28.94 141.83,-30.01"/>
</g>
<!-- Node6&#45;&gt;Node5 -->
<g id="edge8" class="edge">
<title>Node6&#45;&gt;Node5</title>
<path fill="none" stroke="midnightblue" d="M119.53,-112.25C112.52,-99.45 98.57,-75.05 84.22,-56 76.52,-45.76 66.91,-35.13 58.94,-26.77"/>
<polygon fill="midnightblue" stroke="midnightblue" points="61.39,-24.27 51.91,-19.54 56.37,-29.15 61.39,-24.27"/>
</g>
<!-- Node7 -->
<g id="node7" class="node">
<title>Node7</title>
<g id="a_node7"><a xlink:title=" ">
<polygon fill="white" stroke="#bfbfbf" points="169.22,-56.5 169.22,-75.5 213.22,-75.5 213.22,-56.5 169.22,-56.5"/>
<text text-anchor="middle" x="191.22" y="-63.5" font-family="Helvetica,sans-Serif" font-size="10.00">vector</text>
</a>
</g>
</g>
<!-- Node6&#45;&gt;Node7 -->
<g id="edge9" class="edge">
<title>Node6&#45;&gt;Node7</title>
<path fill="none" stroke="midnightblue" d="M134.99,-112.32C144.99,-104.26 160.11,-92.08 172.15,-82.37"/>
<polygon fill="midnightblue" stroke="midnightblue" points="174.67,-84.83 180.26,-75.83 170.28,-79.38 174.67,-84.83"/>
</g>
</g>
</svg>
        <g id="navigator" transform="translate(0 0)" fill="#404254">
                <rect fill="#f2f5e9" fill-opacity="0.5" stroke="#606060" stroke-width=".5" x="0" y="0" width="60" height="60"/>
                <use id="zoomplus" xlink:href="#zoomPlus" x="17" y="9" onmousedown="handleZoom(evt,'in')"/>
                <use id="zoomminus" xlink:href="#zoomMin" x="42" y="9" onmousedown="handleZoom(evt,'out')"/>
                <use id="reset" xlink:href="#resetDef" x="30" y="36" onmousedown="handleReset()"/>
                <g id="arrowUp" xlink:href="#dirArrow" transform="translate(30 24)" onmousedown="handlePan(0,-1)">
                  <use xlink:href="#rim" fill="#404040">
                        <set attributeName="fill" to="#808080" begin="arrowUp.mouseover" end="arrowUp.mouseout"/>
                  </use>
                  <path fill="none" stroke="white" stroke-width="1.5" d="M0,-3.0v7 M-2.5,-0.5L0,-3.0L2.5,-0.5"/>
                </g>
                <g id="arrowRight" xlink:href="#dirArrow" transform="rotate(90) translate(36 -43)" onmousedown="handlePan(1,0)">
                  <use xlink:href="#rim" fill="#404040">
                        <set attributeName="fill" to="#808080" begin="arrowRight.mouseover" end="arrowRight.mouseout"/>
                  </use>
                  <path fill="none" stroke="white" stroke-width="1.5" d="M0,-3.0v7 M-2.5,-0.5L0,-3.0L2.5,-0.5"/>
                </g>
                <g id="arrowDown" xlink:href="#dirArrow" transform="rotate(180) translate(-30 -48)" onmousedown="handlePan(0,1)">
                  <use xlink:href="#rim" fill="#404040">
                        <set attributeName="fill" to="#808080" begin="arrowDown.mouseover" end="arrowDown.mouseout"/>
                  </use>
                  <path fill="none" stroke="white" stroke-width="1.5" d="M0,-3.0v7 M-2.5,-0.5L0,-3.0L2.5,-0.5"/>
                </g>
                <g id="arrowLeft" xlink:href="#dirArrow" transform="rotate(270) translate(-36 17)" onmousedown="handlePan(-1,0)">
                  <use xlink:href="#rim" fill="#404040">
                        <set attributeName="fill" to="#808080" begin="arrowLeft.mouseover" end="arrowLeft.mouseout"/>
                  </use>
                  <path fill="none" stroke="white" stroke-width="1.5" d="M0,-3.0v7 M-2.5,-0.5L0,-3.0L2.5,-0.5"/>
                </g>
        </g>
        <svg viewBox="0 0 15 15" width="100%" height="30px" preserveAspectRatio="xMaxYMin meet">
         <g id="arrow_out" transform="scale(0.3 0.3)">
          <a xlink:href="topologyIO_8cpp__incl_org.svg" target="_base">
           <rect id="button" ry="5" rx="5" y="6" x="6" height="38" width="38"
                fill="#f2f5e9" fill-opacity="0.5" stroke="#606060" stroke-width="1.0"/>
           <path id="arrow"
             d="M 11.500037,31.436501 C 11.940474,20.09759 22.043105,11.32322 32.158766,21.979434 L 37.068811,17.246167 C 37.068811,17.246167 37.088388,32 37.088388,32 L 22.160133,31.978069 C 22.160133,31.978069 26.997745,27.140456 26.997745,27.140456 C 18.528582,18.264221 13.291696,25.230495 11.500037,31.436501 z"
             style="fill:#404040;"/>
          </a>
         </g>
        </svg>
</svg>
