<?xml version="1.0" encoding="UTF-8" standalone="no"?>
<!DOCTYPE svg PUBLIC "-//W3C//DTD SVG 1.1//EN"
 "http://www.w3.org/Graphics/SVG/1.1/DTD/svg11.dtd">
<!-- Generated by graphviz version 3.0.0 (0)
 -->
<!-- Title: include/topologyIO.hpp Pages: 1 -->
<svg width="230pt" height="196pt"
 viewBox="0.00 0.00 229.50 196.00" xmlns="http://www.w3.org/2000/svg" xmlns:xlink="http://www.w3.org/1999/xlink">
<g id="graph0" class="graph" transform="scale(1 1) rotate(0) translate(4 192)">
<title>include/topologyIO.hpp</title>
<polygon fill="white" stroke="transparent" points="-4,4 -4,-192 225.5,-192 225.5,4 -4,4"/>
<!-- Node1 -->
<g id="node1" class="node">
<title>Node1</title>
<g id="a_node1"><a xlink:title=" ">
<polygon fill="#bfbfbf" stroke="black" points="89,-168.5 89,-187.5 205,-187.5 205,-168.5 89,-168.5"/>
<text text-anchor="middle" x="147" y="-175.5" font-family="Helvetica,sans-Serif" font-size="10.00">include/topologyIO.hpp</text>
</a>
</g>
</g>
<!-- Node2 -->
<g id="node2" class="node">
<title>Node2</title>
<g id="a_node2"><a xlink:href="device_8hpp.html" target="_top" xlink:title=" ">
<polygon fill="white" stroke="black" points="47,-56.5 47,-75.5 111,-75.5 111,-56.5 47,-56.5"/>
<text text-anchor="middle" x="79" y="-63.5" font-family="Helvetica,sans-Serif" font-size="10.00">device.hpp</text>
</a>
</g>
</g>
<!-- Node1&#45;&gt;Node2 -->
<g id="edge1" class="edge">
<title>Node1&#45;&gt;Node2</title>
<path fill="none" stroke="midnightblue" d="M135.97,-168.44C125.89,-160.1 111.2,-146.58 102,-132 92.92,-117.6 86.83,-99.15 83.21,-85.58"/>
<polygon fill="midnightblue" stroke="midnightblue" points="86.53,-84.41 80.74,-75.53 79.73,-86.08 86.53,-84.41"/>
</g>
<!-- Node4 -->
<g id="node4" class="node">
<title>Node4</title>
<g id="a_node4"><a xlink:title=" ">
<polygon fill="white" stroke="#bfbfbf" points="180.5,-0.5 180.5,-19.5 221.5,-19.5 221.5,-0.5 180.5,-0.5"/>
<text text-anchor="middle" x="201" y="-7.5" font-family="Helvetica,sans-Serif" font-size="10.00">string</text>
</a>
</g>
</g>
<!-- Node1&#45;&gt;Node4 -->
<g id="edge9" class="edge">
<title>Node1&#45;&gt;Node4</title>
<path fill="none" stroke="midnightblue" d="M159.59,-168.22C170.14,-160.12 184.62,-147.09 192,-132 208.14,-99 206.47,-54.81 203.76,-29.99"/>
<polygon fill="midnightblue" stroke="midnightblue" points="207.2,-29.26 202.46,-19.78 200.25,-30.14 207.2,-29.26"/>
</g>
<!-- Node5 -->
<g id="node5" class="node">
<title>Node5</title>
<g id="a_node5"><a xlink:href="topology_8hpp.html" target="_top" xlink:title=" ">
<polygon fill="white" stroke="black" points="111.5,-112.5 111.5,-131.5 182.5,-131.5 182.5,-112.5 111.5,-112.5"/>
<text text-anchor="middle" x="147" y="-119.5" font-family="Helvetica,sans-Serif" font-size="10.00">topology.hpp</text>
</a>
</g>
</g>
<!-- Node1&#45;&gt;Node5 -->
<g id="edge4" class="edge">
<title>Node1&#45;&gt;Node5</title>
<path fill="none" stroke="midnightblue" d="M147,-168.08C147,-161.01 147,-150.86 147,-141.99"/>
<polygon fill="midnightblue" stroke="midnightblue" points="150.5,-141.75 147,-131.75 143.5,-141.75 150.5,-141.75"/>
</g>
<!-- Node3 -->
<g id="node3" class="node">
<title>Node3</title>
<g id="a_node3"><a xlink:title=" ">
<polygon fill="white" stroke="#bfbfbf" points="0,-0.5 0,-19.5 98,-19.5 98,-0.5 0,-0.5"/>
<text text-anchor="middle" x="49" y="-7.5" font-family="Helvetica,sans-Serif" font-size="10.00">nlohmann/json.hpp</text>
</a>
</g>
</g>
<!-- Node2&#45;&gt;Node3 -->
<g id="edge2" class="edge">
<title>Node2&#45;&gt;Node3</title>
<path fill="none" stroke="midnightblue" d="M74.05,-56.08C69.9,-48.61 63.85,-37.72 58.73,-28.52"/>
<polygon fill="midnightblue" stroke="midnightblue" points="61.78,-26.79 53.86,-19.75 55.66,-30.19 61.78,-26.79"/>
</g>
<!-- Node2&#45;&gt;Node4 -->
<g id="edge3" class="edge">
<title>Node2&#45;&gt;Node4</title>
<path fill="none" stroke="midnightblue" d="M98.33,-56.44C118.32,-47.6 149.74,-33.69 172.56,-23.59"/>
<polygon fill="midnightblue" stroke="midnightblue" points="174.03,-26.76 181.76,-19.52 171.2,-20.36 174.03,-26.76"/>
</g>
<!-- Node5&#45;&gt;Node2 -->
<g id="edge5" class="edge">
<title>Node5&#45;&gt;Node2</title>
<path fill="none" stroke="midnightblue" d="M136.07,-112.32C125.83,-104.18 110.28,-91.84 98,-82.09"/>
<polygon fill="midnightblue" stroke="midnightblue" points="100.13,-79.31 90.12,-75.83 95.78,-84.79 100.13,-79.31"/>
</g>
<!-- Node5&#45;&gt;Node3 -->
<g id="edge6" class="edge">
<title>Node5&#45;&gt;Node3</title>
<path fill="none" stroke="midnightblue" d="M111.29,-116.61C86.16,-111.44 54.22,-100.25 38,-76 28.68,-62.07 33.62,-42.8 39.56,-28.87"/>
<polygon fill="midnightblue" stroke="midnightblue" points="42.73,-30.35 43.87,-19.81 36.41,-27.34 42.73,-30.35"/>
</g>
<!-- Node5&#45;&gt;Node4 -->
<g id="edge7" class="edge">
<title>Node5&#45;&gt;Node4</title>
<path fill="none" stroke="midnightblue" d="M155.33,-112.39C163.22,-103.8 174.88,-89.92 182,-76 189.53,-61.28 194.52,-43.12 197.49,-29.74"/>
<polygon fill="midnightblue" stroke="midnightblue" points="200.94,-30.3 199.52,-19.8 194.09,-28.9 200.94,-30.3"/>
</g>
<!-- Node6 -->
<g id="node6" class="node">
<title>Node6</title>
<g id="a_node6"><a xlink:title=" ">
<polygon fill="white" stroke="#bfbfbf" points="129,-56.5 129,-75.5 173,-75.5 173,-56.5 129,-56.5"/>
<text text-anchor="middle" x="151" y="-63.5" font-family="Helvetica,sans-Serif" font-size="10.00">vector</text>
</a>
</g>
</g>
<!-- Node5&#45;&gt;Node6 -->
<g id="edge8" class="edge">
<title>Node5&#45;&gt;Node6</title>
<path fill="none" stroke="midnightblue" d="M147.66,-112.08C148.18,-105.01 148.94,-94.86 149.59,-85.99"/>
<polygon fill="midnightblue" stroke="midnightblue" points="153.1,-85.98 150.35,-75.75 146.12,-85.47 153.1,-85.98"/>
</g>
</g>
</svg>
