<?xml version="1.0" encoding="UTF-8" standalone="no"?>
<!DOCTYPE svg PUBLIC "-//W3C//DTD SVG 1.1//EN"
 "http://www.w3.org/Graphics/SVG/1.1/DTD/svg11.dtd">
<!-- Generated by graphviz version 3.0.0 (0)
 -->
<!-- Title: include/topology.hpp Pages: 1 -->
<svg width="446pt" height="140pt"
 viewBox="0.00 0.00 446.00 140.00" xmlns="http://www.w3.org/2000/svg" xmlns:xlink="http://www.w3.org/1999/xlink">
<g id="graph0" class="graph" transform="scale(1 1) rotate(0) translate(4 136)">
<title>include/topology.hpp</title>
<polygon fill="white" stroke="transparent" points="-4,4 -4,-136 442,-136 442,4 -4,4"/>
<!-- Node1 -->
<g id="node1" class="node">
<title>Node1</title>
<g id="a_node1"><a xlink:title=" ">
<polygon fill="#bfbfbf" stroke="black" points="180.5,-112.5 180.5,-131.5 285.5,-131.5 285.5,-112.5 180.5,-112.5"/>
<text text-anchor="middle" x="233" y="-119.5" font-family="Helvetica,sans-Serif" font-size="10.00">include/topology.hpp</text>
</a>
</g>
</g>
<!-- Node2 -->
<g id="node2" class="node">
<title>Node2</title>
<g id="a_node2"><a xlink:href="topologyIO_8hpp.html" target="_top" xlink:title=" ">
<polygon fill="white" stroke="black" points="0,-56.5 0,-75.5 116,-75.5 116,-56.5 0,-56.5"/>
<text text-anchor="middle" x="58" y="-63.5" font-family="Helvetica,sans-Serif" font-size="10.00">include/topologyIO.hpp</text>
</a>
</g>
</g>
<!-- Node1&#45;&gt;Node2 -->
<g id="edge1" class="edge">
<title>Node1&#45;&gt;Node2</title>
<path fill="none" stroke="midnightblue" d="M195.53,-109.44C162.53,-99.26 115.24,-84.66 85.6,-75.52"/>
<polygon fill="midnightblue" stroke="midnightblue" points="194.68,-112.84 205.27,-112.44 196.75,-106.15 194.68,-112.84"/>
</g>
<!-- Node3 -->
<g id="node3" class="node">
<title>Node3</title>
<g id="a_node3"><a xlink:href="topologyIO_8cpp.html" target="_top" xlink:title=" ">
<polygon fill="white" stroke="black" points="65.5,-0.5 65.5,-19.5 164.5,-19.5 164.5,-0.5 65.5,-0.5"/>
<text text-anchor="middle" x="115" y="-7.5" font-family="Helvetica,sans-Serif" font-size="10.00">src/topologyIO.cpp</text>
</a>
</g>
</g>
<!-- Node1&#45;&gt;Node3 -->
<g id="edge6" class="edge">
<title>Node1&#45;&gt;Node3</title>
<path fill="none" stroke="midnightblue" d="M206.89,-107.28C192.99,-99.25 176.1,-88.28 163,-76 144.37,-58.54 127.97,-33.05 120.04,-19.78"/>
<polygon fill="midnightblue" stroke="midnightblue" points="205.52,-110.52 215.96,-112.35 208.94,-104.41 205.52,-110.52"/>
</g>
<!-- Node4 -->
<g id="node4" class="node">
<title>Node4</title>
<g id="a_node4"><a xlink:href="topologyList_8hpp.html" target="_top" xlink:title=" ">
<polygon fill="white" stroke="black" points="172,-56.5 172,-75.5 294,-75.5 294,-56.5 172,-56.5"/>
<text text-anchor="middle" x="233" y="-63.5" font-family="Helvetica,sans-Serif" font-size="10.00">include/topologyList.hpp</text>
</a>
</g>
</g>
<!-- Node1&#45;&gt;Node4 -->
<g id="edge3" class="edge">
<title>Node1&#45;&gt;Node4</title>
<path fill="none" stroke="midnightblue" d="M233,-101.8C233,-92.91 233,-82.78 233,-75.75"/>
<polygon fill="midnightblue" stroke="midnightblue" points="229.5,-102.08 233,-112.08 236.5,-102.08 229.5,-102.08"/>
</g>
<!-- Node5 -->
<g id="node5" class="node">
<title>Node5</title>
<g id="a_node5"><a xlink:href="topologyList_8cpp.html" target="_top" xlink:title=" ">
<polygon fill="white" stroke="black" points="210,-0.5 210,-19.5 314,-19.5 314,-0.5 210,-0.5"/>
<text text-anchor="middle" x="262" y="-7.5" font-family="Helvetica,sans-Serif" font-size="10.00">src/topologyList.cpp</text>
</a>
</g>
</g>
<!-- Node1&#45;&gt;Node5 -->
<g id="edge7" class="edge">
<title>Node1&#45;&gt;Node5</title>
<path fill="none" stroke="midnightblue" d="M266.82,-107.96C280.64,-100.76 295.18,-90.32 303,-76 314.38,-55.16 290.11,-31.87 274.27,-19.62"/>
<polygon fill="midnightblue" stroke="midnightblue" points="264.98,-104.97 257.47,-112.44 268,-111.28 264.98,-104.97"/>
</g>
<!-- Node6 -->
<g id="node6" class="node">
<title>Node6</title>
<g id="a_node6"><a xlink:href="topology_8cpp.html" target="_top" xlink:title=" ">
<polygon fill="white" stroke="black" points="350,-56.5 350,-75.5 438,-75.5 438,-56.5 350,-56.5"/>
<text text-anchor="middle" x="394" y="-63.5" font-family="Helvetica,sans-Serif" font-size="10.00">src/topology.cpp</text>
</a>
</g>
</g>
<!-- Node1&#45;&gt;Node6 -->
<g id="edge5" class="edge">
<title>Node1&#45;&gt;Node6</title>
<path fill="none" stroke="midnightblue" d="M268.26,-109.17C298.58,-99 341.57,-84.59 368.61,-75.52"/>
<polygon fill="midnightblue" stroke="midnightblue" points="266.88,-105.95 258.51,-112.44 269.1,-112.58 266.88,-105.95"/>
</g>
<!-- Node2&#45;&gt;Node3 -->
<g id="edge2" class="edge">
<title>Node2&#45;&gt;Node3</title>
<path fill="none" stroke="midnightblue" d="M74.62,-49.25C84.73,-39.67 97.28,-27.79 105.68,-19.83"/>
<polygon fill="midnightblue" stroke="midnightblue" points="72.01,-46.91 67.16,-56.32 76.82,-51.99 72.01,-46.91"/>
</g>
<!-- Node4&#45;&gt;Node5 -->
<g id="edge4" class="edge">
<title>Node4&#45;&gt;Node5</title>
<path fill="none" stroke="midnightblue" d="M242.68,-46.98C247.6,-37.82 253.36,-27.09 257.3,-19.75"/>
<polygon fill="midnightblue" stroke="midnightblue" points="239.44,-45.62 237.79,-56.08 245.6,-48.93 239.44,-45.62"/>
</g>
</g>
</svg>
